<?xml version="1.0" encoding="UTF-8"?>
<svg version="1.1" xmlns="http://www.w3.org/2000/svg" width="437" height="437">
<path d="M0 0 C0.80943652 -0.00311998 1.61887304 -0.00623996 2.45283794 -0.00945449 C5.1565403 -0.01741161 7.8600168 -0.01111977 10.5637207 -0.00482178 C12.50558605 -0.00753265 14.44745037 -0.01109413 16.38931274 -0.01544189 C21.65781299 -0.02455665 26.92623487 -0.02102538 32.19473648 -0.01468372 C37.70925355 -0.00961903 43.22376392 -0.01431649 48.73828125 -0.01745605 C57.99879155 -0.02109432 67.25926994 -0.01630024 76.51977539 -0.0067749 C87.22503688 0.00410937 97.93022219 0.00058369 108.63548183 -0.01042771 C117.82798381 -0.01950454 127.02046286 -0.02078392 136.21296787 -0.01555037 C141.70273144 -0.01243286 147.1924592 -0.01201537 152.68222046 -0.01862335 C157.84339335 -0.0244019 163.00446805 -0.02039051 168.16563034 -0.00883484 C170.05948092 -0.00619099 171.95333976 -0.00694865 173.84718704 -0.01136017 C176.43290413 -0.01682787 179.01830683 -0.0099666 181.60400391 0 C182.3528419 -0.00446144 183.1016799 -0.00892289 183.87320995 -0.01351953 C188.20397656 0.01884213 191.84980453 0.42360788 195.80200195 2.25396729 C196.9074707 5.45318604 196.9074707 5.45318604 197.80200195 9.25396729 C199.18345043 11.61247165 200.57066282 13.8250533 202.11450195 16.06646729 C205.80703574 21.63229007 208.98902747 27.18597946 211.80200195 33.25396729 C213.2547672 36.38159055 214.71369751 39.50626105 216.17700195 42.62896729 C216.76046387 43.87891479 216.76046387 43.87891479 217.35571289 45.15411377 C219.53556293 49.76837168 221.85736101 54.1619476 224.55200195 58.50396729 C235.74580165 77.33224788 238.54462527 102.66323309 239.80200195 124.25396729 C239.87918457 125.28376709 239.95636719 126.31356689 240.03588867 127.37457275 C241.47433012 148.59234444 238.03042956 167.95336841 233.35961914 188.6038208 C227.93774876 211.25010472 227.93774876 211.25010472 233.84204102 233.01519775 C234.97485198 234.79511837 236.17507012 236.49348933 237.42700195 238.19146729 C237.86286621 238.79120361 238.29873047 239.39093994 238.74780273 240.0088501 C247.0988835 251.36478264 247.0988835 251.36478264 259.48950195 256.81646729 C260.58262695 256.96084229 261.67575195 257.10521729 262.80200195 257.25396729 C267.46273069 261.91469602 264.93637988 278.50603656 264.94094849 284.93318176 C264.93915952 286.96849593 264.93710877 289.00380988 264.93481445 291.03912354 C264.93548888 293.14853425 264.93646007 295.25794489 264.93771362 297.36735535 C264.93918113 301.76568347 264.93706465 306.16399116 264.93237305 310.56231689 C264.9266446 316.2083118 264.92998031 321.8542595 264.93594551 327.50025272 C264.93954981 331.84525411 264.93841369 336.19024418 264.93581772 340.5352459 C264.93514972 342.61853478 264.93597246 344.70182469 264.93829727 346.78511238 C264.94082502 349.68369421 264.93698289 352.58219794 264.93139648 355.48077393 C264.93342072 356.34462204 264.93544495 357.20847015 264.93753052 358.09849548 C264.91627262 364.02542596 264.91627262 364.02542596 263.80200195 366.25396729 C246.64712837 367.18058465 229.52671729 367.40534985 212.35029209 367.399351 C208.62389005 367.39914333 204.89749527 367.40469925 201.1710968 367.40940857 C193.90974641 367.41763144 186.64840415 367.42045937 179.38704949 367.42102095 C173.4866193 367.42149915 167.58619176 367.42356885 161.68576241 367.42672157 C144.91875878 367.43549724 128.15176149 367.44014461 111.38475554 367.4393911 C110.48531551 367.43935114 109.58587548 367.43931119 108.65917969 367.43927002 C107.75863196 367.43922914 106.85808424 367.43918826 105.9302472 367.43914614 C91.28260288 367.43873824 76.63498409 367.44835183 61.98734718 367.46240839 C46.90996279 367.47676256 31.83259089 367.48367943 16.75519949 367.48281461 C8.30456651 367.48248281 -0.14603954 367.4852239 -8.59666634 367.49599266 C-15.77570602 367.50508392 -22.95470649 367.50728343 -30.13374943 367.50048324 C-33.79433674 367.49721403 -37.45484874 367.49717635 -41.11542892 367.50583649 C-45.08175353 367.51512403 -49.04796756 367.50893789 -53.01429749 367.50120544 C-54.75049405 367.50892079 -54.75049405 367.50892079 -56.52176529 367.516792 C-61.79729506 367.4939834 -66.2772915 367.41819753 -71.19799805 365.25396729 C-71.22134603 349.92049427 -71.23898658 334.58702207 -71.24981022 319.25353527 C-71.25496913 312.13412571 -71.26200414 305.01472718 -71.2734375 297.89532471 C-71.28445933 291.02890734 -71.29027715 284.16250147 -71.29287529 277.29607582 C-71.29472761 274.67214082 -71.29834456 272.04820648 -71.3037281 269.42427635 C-71.31095256 265.75836182 -71.31198839 262.09249517 -71.31152344 258.42657471 C-71.31511871 257.33397339 -71.31871399 256.24137207 -71.32241821 255.11566162 C-71.32104355 254.11866745 -71.31966888 253.12167328 -71.31825256 252.09446716 C-71.31917436 251.22705997 -71.32009615 250.35965277 -71.32104588 249.4659605 C-71.19799805 247.25396729 -71.19799805 247.25396729 -70.19799805 244.25396729 C-69.53799805 244.25396729 -68.87799805 244.25396729 -68.19799805 244.25396729 C-67.43487305 245.09959229 -66.67174805 245.94521729 -65.88549805 246.81646729 C-63.47211036 249.4784778 -63.47211036 249.4784778 -60.57299805 249.56646729 C-57.5707267 247.90731733 -56.78196602 246.0960481 -55.7409668 242.88677979 C-54.8481495 238.55757937 -54.79690763 234.18390619 -54.58081055 229.77740479 C-54.11770771 225.51496844 -52.8592342 222.09893352 -51.0378418 218.24224854 C-48.31197996 208.54325178 -51.0991808 198.47000282 -53.0763855 188.86599731 C-56.04444016 174.37555062 -58.49474133 160.05432447 -59.19799805 145.25396729 C-59.26760742 144.19306885 -59.3372168 143.13217041 -59.40893555 142.03912354 C-60.54593021 110.85923148 -49.22228714 79.12752438 -35.68530273 51.61505127 C-32.42148706 44.94843593 -29.48599793 38.24381677 -26.82299805 31.31646729 C-24.198271 24.50459616 -21.27592324 18.34078188 -17.19799805 12.25396729 C-15.73544572 9.94746483 -14.44239663 7.69298852 -13.19799805 5.25396729 C-13.69299805 3.76896729 -13.69299805 3.76896729 -14.19799805 2.25396729 C-9.40557094 0.35803969 -5.09134756 -0.03033334 0 0 Z " fill="#F99F7D" transform="translate(117.197998046875,30.74603271484375)"/>
<path d="M0 0 C1.35844025 -0.00845947 1.35844025 -0.00845947 2.74432373 -0.01708984 C4.23118179 -0.01101715 4.23118179 -0.01101715 5.74807739 -0.00482178 C7.31676575 -0.01007874 7.31676575 -0.01007874 8.91714478 -0.01544189 C12.38315418 -0.02426279 15.84896034 -0.01840785 19.31497192 -0.01165771 C21.72009317 -0.01300446 24.12521416 -0.01494508 26.53033447 -0.01745605 C31.57592353 -0.02040797 36.62144186 -0.01610819 41.66702271 -0.0067749 C48.13580916 0.00460737 54.60442944 -0.00193174 61.07320976 -0.01391983 C66.04200492 -0.021147 71.01076069 -0.01884633 75.97955704 -0.01366425 C78.36459498 -0.01232949 80.74963649 -0.01396938 83.13467026 -0.01862335 C86.46944392 -0.02370119 89.80394875 -0.01595981 93.13870239 -0.00482178 C94.12589264 -0.00887024 95.11308289 -0.0129187 96.13018799 -0.01708984 C105.43425297 0.04049118 109.99913073 2.83172212 116.57278442 9.25396729 C118.3280425 11.21250692 120.02672742 13.21090673 121.72512817 15.21881104 C123.71595641 17.41166836 125.83295029 19.31732559 128.07278442 21.25396729 C131.00639248 23.79047104 133.63093152 26.35574028 136.13528442 29.31646729 C138.95911951 32.65078973 141.98948836 35.43447278 145.31497192 38.25787354 C148.12665153 40.7436318 150.79140923 43.35411561 153.44778442 46.00396729 C154.3733313 46.92693604 155.29887817 47.84990479 156.25247192 48.80084229 C159.51190647 52.24684379 160.81847723 54.23197091 160.87385559 58.9132843 C160.88961136 59.87058441 160.90536713 60.82788452 160.92160034 61.81419373 C160.92854919 62.86303238 160.93549805 63.91187103 160.94265747 64.99249268 C160.95740616 66.09852844 160.97215485 67.20456421 160.98735046 68.34411621 C161.03195828 72.01327592 161.06012412 75.68227609 161.08450317 79.35162354 C161.09390238 80.60513548 161.10330158 81.85864742 161.11298561 83.15014458 C161.15079196 88.42162081 161.18468939 93.69307334 161.20335674 98.96465397 C161.23011446 106.50129175 161.28752071 114.03620476 161.38912171 121.572218 C161.46656738 127.52179457 161.49413565 133.47098919 161.50455666 139.42107964 C161.51612504 141.9444479 161.54293518 144.46779537 161.58548546 146.99083138 C161.93819095 169.22757997 161.93819095 169.22757997 156.62454224 175.25909424 C154.97650167 176.63487395 153.29147175 177.9675298 151.57278442 179.25396729 C149.965581 180.8646556 148.38133169 182.49852867 146.81912231 184.15289307 C145.14733984 185.83778298 143.4726837 187.51982555 141.79544067 189.19927979 C140.90288071 190.09516815 140.01032074 190.99105652 139.0907135 191.91409302 C137.22398034 193.78584705 135.35592902 195.65628734 133.48660278 197.52545166 C131.08850741 199.92344405 128.69744731 202.32832817 126.30794621 204.73488045 C124.01657813 207.03997541 121.71808683 209.33794515 119.42044067 211.63677979 C118.56217178 212.50223419 117.70390289 213.3676886 116.81962585 214.2593689 C116.02797531 215.04794281 115.23632477 215.83651672 114.42068481 216.64898682 C113.72391129 217.34718536 113.02713776 218.04538391 112.30924988 218.76473999 C110.57278442 220.25396729 110.57278442 220.25396729 108.57278442 220.25396729 C108.24278442 221.24396729 107.91278442 222.23396729 107.57278442 223.25396729 C93.20387083 223.34748453 78.83500456 223.41771649 64.46584892 223.46121597 C57.79369118 223.48209328 51.12177757 223.51041413 44.44973755 223.5557251 C38.01122146 223.59917668 31.57290203 223.62310334 25.13425064 223.63347626 C22.67743967 223.64086876 20.22063949 223.65530447 17.7639122 223.67688751 C14.32350123 223.70591126 10.88390354 223.70992356 7.44338989 223.70806885 C6.42702957 223.72244995 5.41066925 223.73683105 4.36351013 223.75164795 C-4.22561681 223.70152302 -8.3362891 220.56578013 -14.39108276 214.61236572 C-15.32514954 213.69751404 -16.25921631 212.78266235 -17.22158813 211.84008789 C-18.2229744 210.84839656 -19.22379506 209.85613382 -20.22409058 208.86334229 C-20.98988811 208.10602688 -20.98988811 208.10602688 -21.77115631 207.33341217 C-24.46970437 204.66471151 -27.16254994 201.99041411 -29.85055542 199.31109619 C-32.61665798 196.55598113 -35.40084117 193.81992857 -38.18970871 191.08788681 C-40.34289047 188.97206326 -42.48243112 186.8428336 -44.6185379 184.70978546 C-45.6389827 183.69536492 -46.66439369 182.68591327 -47.69493866 181.68175507 C-49.13778283 180.27326836 -50.55979358 178.84353688 -51.98092651 177.41314697 C-52.79333801 176.60802673 -53.60574951 175.80290649 -54.44277954 174.97338867 C-59.09399029 168.59948608 -58.72118237 161.10012234 -58.70187378 153.5269165 C-58.70698471 152.48200043 -58.71209564 151.43708435 -58.71736145 150.36050415 C-58.73119657 146.92649519 -58.7303058 143.4926882 -58.72799683 140.05865479 C-58.73188594 137.66307501 -58.73622106 135.26749592 -58.74098206 132.87191772 C-58.74843033 127.86041015 -58.74816222 122.84897306 -58.7428894 117.83746338 C-58.73708435 111.41706806 -58.75405778 104.99696024 -58.77723408 98.57661247 C-58.79196401 93.63351761 -58.79284432 88.69049222 -58.78972435 83.7473793 C-58.79023753 81.37990879 -58.79547455 79.01243439 -58.80553627 76.6449852 C-58.81787417 73.33720906 -58.8111254 70.02999614 -58.79953003 66.722229 C-58.80717377 65.74648926 -58.8148175 64.77074951 -58.82269287 63.76544189 C-58.75920969 55.57096119 -56.58701492 51.03180196 -50.72799683 45.19830322 C-50.03231094 44.49955078 -50.03231094 44.49955078 -49.3225708 43.78668213 C-47.80209438 42.2632205 -46.27121064 40.75072003 -44.73971558 39.23834229 C-43.67443446 38.17612232 -42.60974621 37.11330748 -41.54562378 36.04992676 C-39.32090851 33.82980004 -37.09139228 31.61465692 -34.85787964 29.40338135 C-31.99615915 26.57001088 -29.14325009 23.72797209 -26.29344177 20.88262558 C-24.09777742 18.69111799 -21.89929657 16.5024557 -19.69976807 14.31482697 C-18.64674981 13.26750067 -17.59419505 12.21970814 -16.54211426 11.17144012 C-15.07280591 9.70901007 -13.60017374 8.25001617 -12.12643433 6.79205322 C-11.28942993 5.96187683 -10.45242554 5.13170044 -9.59005737 4.27636719 C-6.34607099 1.24302571 -4.3860576 0.00420152 0 0 Z " fill="#FEC885" transform="translate(161.42721557617188,51.74603271484375)"/>
<path d="M0 0 C0.598125 0.309375 1.19625 0.61875 1.8125 0.9375 C4.08956772 2.10209704 4.08956772 2.10209704 7 3 C8.4375 4.4609375 8.4375 4.4609375 10 6.375 C14.68461956 11.89615877 19.84879511 16.92129866 25 22 C30.70911834 27.62876212 36.38790387 33.22906702 41.55029297 39.37426758 C43.80045256 41.8976446 46.366866 43.88204439 49 46 C50.68816933 47.64488294 52.35353315 49.31337542 54 51 C55.16532026 52.16801153 56.33207275 53.33459528 57.5 54.5 C123 120 123 120 125.6817627 122.6895752 C127.37286528 124.37497874 129.08632084 126.03803991 130.8125 127.6875 C133 130 133 130 133 132 C133.66 132 134.32 132 135 132 C133.63016497 135.16115776 133.0109362 135.9927092 130 138 C128.0362339 138.26006222 128.0362339 138.26006222 125.76260376 138.27415466 C124.8990477 138.28412979 124.03549164 138.29410492 123.14576721 138.30438232 C121.72903969 138.30537933 121.72903969 138.30537933 120.28369141 138.30639648 C119.28666702 138.31472 118.28964264 138.32304352 117.2624054 138.33161926 C113.95875165 138.3557612 110.65529517 138.36449642 107.3515625 138.37109375 C105.05854227 138.38005665 102.76552265 138.38917843 100.47250366 138.39845276 C95.6623187 138.41495656 90.85220345 138.42264545 86.04199219 138.42553711 C79.87565422 138.43092327 73.7099706 138.46860774 67.54381752 138.51428127 C62.8066264 138.54401023 58.06959366 138.55125976 53.33231735 138.55226326 C51.05889259 138.55647356 48.78546769 138.5689401 46.51213455 138.58978081 C43.33263148 138.61660873 40.15465577 138.61189471 36.97509766 138.59936523 C36.0346611 138.61419952 35.09422455 138.62903381 34.12528992 138.64431763 C27.00995534 138.56439135 27.00995534 138.56439135 23.8765564 135.46253967 C23.25729279 134.64990158 22.63802917 133.83726349 22 133 C22.50861572 132.49662109 23.01723145 131.99324219 23.54125977 131.47460938 C25.88440728 129.15248022 28.22346602 126.8262723 30.5625 124.5 C31.36236328 123.70851563 32.16222656 122.91703125 32.98632812 122.1015625 C37.33381934 117.77181615 41.52854194 113.38093631 45.50756836 108.70898438 C46.95235548 107.05455777 48.35926783 105.46191112 50 104 C50.66 104 51.32 104 52 104 C52.24492187 103.42765625 52.48984375 102.8553125 52.7421875 102.265625 C54.21110099 99.61975598 55.95348244 97.85146861 58.125 95.75 C58.84945312 95.04359375 59.57390625 94.3371875 60.3203125 93.609375 C61.15175781 92.81273437 61.15175781 92.81273437 62 92 C60.5735422 88.7413364 58.83295838 86.5975146 56.3046875 84.109375 C55.23154297 83.04589844 55.23154297 83.04589844 54.13671875 81.9609375 C53.39035156 81.23132813 52.64398438 80.50171875 51.875 79.75 C51.12089844 79.00492187 50.36679688 78.25984375 49.58984375 77.4921875 C47.73099228 75.6568658 45.86762995 73.8263809 44 72 C40.77254476 73.41901662 38.62741893 75.12855765 36.14941406 77.62353516 C35.40894836 78.36415192 34.66848267 79.10476868 33.90557861 79.86782837 C33.11689392 80.66683563 32.32820923 81.4658429 31.515625 82.2890625 C30.70003113 83.10748627 29.88443726 83.92591003 29.04412842 84.76913452 C26.44135438 87.38309973 23.84562238 90.00393505 21.25 92.625 C19.4861366 94.39889454 17.7218191 96.17233766 15.95703125 97.9453125 C11.63273864 102.29165142 7.3142067 106.64365081 3 111 C-0.875 109.125 -0.875 109.125 -2 108 C-2.0996507 106.64082806 -2.13074473 105.27654368 -2.13371277 103.91372681 C-2.13797775 103.03320145 -2.14224274 102.15267609 -2.14663696 101.24546814 C-2.14618378 100.27194901 -2.14573059 99.29842987 -2.14526367 98.29541016 C-2.14862228 97.2759581 -2.1519809 96.25650604 -2.15544128 95.2061615 C-2.16498408 91.81711629 -2.16689611 88.42812032 -2.16796875 85.0390625 C-2.17117921 82.69355244 -2.17454312 80.34804259 -2.17805481 78.00253296 C-2.18405456 73.07785579 -2.18589386 68.15319619 -2.18530273 63.22851562 C-2.18520111 56.90745808 -2.1988501 50.58651286 -2.21607494 44.26548195 C-2.22717555 39.41858398 -2.22922253 34.57171331 -2.22869301 29.72480392 C-2.22987618 27.39393095 -2.23431671 25.06305734 -2.24202538 22.73219681 C-2.25178539 19.47584346 -2.24896289 16.21973592 -2.24291992 12.96337891 C-2.24853943 11.99390823 -2.25415894 11.02443756 -2.25994873 10.02558899 C-2.25575424 9.13942398 -2.25155975 8.25325897 -2.24723816 7.34024048 C-2.24778293 6.56999857 -2.24832769 5.79975666 -2.24888897 5.00617409 C-2 3 -2 3 0 0 Z " fill="#F77647" transform="translate(134,108)"/>
<path d="M0 0 C0.88327469 -0.00563965 1.76654938 -0.0112793 2.67658997 -0.01708984 C3.64291855 -0.01304138 4.60924713 -0.00899292 5.6048584 -0.00482178 C6.62460251 -0.00832642 7.64434662 -0.01183105 8.69499207 -0.01544189 C12.07321943 -0.0242603 15.45123819 -0.01840959 18.82946777 -0.01165771 C21.17211955 -0.01300433 23.51477106 -0.01494483 25.85742188 -0.01745605 C30.77016863 -0.02040747 35.68284273 -0.01610906 40.59558105 -0.0067749 C46.90089959 0.00461958 53.20604788 -0.00193979 59.51136017 -0.01391983 C64.34968352 -0.02113792 69.18796634 -0.01885072 74.02629089 -0.01366425 C76.35157796 -0.01232761 78.67686868 -0.01397594 81.00215149 -0.01862335 C84.24872625 -0.02368768 87.49502314 -0.01597948 90.74157715 -0.00482178 C91.70790573 -0.00887024 92.67423431 -0.0129187 93.66984558 -0.01708984 C94.55312027 -0.0114502 95.43639496 -0.00581055 96.34643555 0 C97.11407982 0.00075405 97.88172409 0.0015081 98.67263031 0.002285 C100.67321777 0.25396729 100.67321777 0.25396729 103.67321777 2.25396729 C103.0924802 5.4709564 102.20216791 7.09552808 99.88513184 9.38262939 C99.00851898 10.25890236 99.00851898 10.25890236 98.11419678 11.15287781 C97.47882996 11.77276077 96.84346313 12.39264374 96.18884277 13.03131104 C95.53623474 13.67967422 94.88362671 14.32803741 94.21124268 14.99604797 C92.12217273 17.06833692 90.02294044 19.12997824 87.92321777 21.19146729 C86.52409325 22.57553876 85.12564772 23.96029697 83.72790527 25.34576416 C80.58162421 28.46218436 77.42786868 31.57086651 74.27050781 34.67605591 C72.78976599 36.13883305 71.32034441 37.61304542 69.85192871 39.0881958 C67.67321777 41.25396729 67.67321777 41.25396729 65.79821777 42.81646729 C64.48704132 44.18762855 64.48704132 44.18762855 64.67321777 46.06646729 C67.28505135 51.77985323 72.12787592 55.64578702 76.80212402 59.64849854 C78.87439458 61.42658454 80.85766947 63.21147545 82.67321777 65.25396729 C82.67321777 65.91396729 82.67321777 66.57396729 82.67321777 67.25396729 C83.33321777 67.25396729 83.99321777 67.25396729 84.67321777 67.25396729 C84.92848236 66.67338562 85.18374695 66.09280396 85.44674683 65.49462891 C86.79992476 63.02248403 88.2989029 61.38764057 90.29675293 59.40338135 C91.03736969 58.66291565 91.77798645 57.92244995 92.54104614 57.1595459 C93.34005341 56.37086121 94.13906067 55.58217651 94.96228027 54.76959229 C95.78070404 53.95399841 96.59912781 53.13840454 97.44235229 52.2980957 C100.05631751 49.69532166 102.67715282 47.09958966 105.29821777 44.50396729 C107.07211231 42.74010389 108.84555544 40.97578638 110.61853027 39.21099854 C114.9648692 34.88670592 119.31686858 30.56817398 123.67321777 26.25396729 C124.66321777 26.58396729 125.65321777 26.91396729 126.67321777 27.25396729 C126.67321777 27.91396729 126.67321777 28.57396729 126.67321777 29.25396729 C127.33321777 29.25396729 127.99321777 29.25396729 128.67321777 29.25396729 C128.74263869 42.89242221 128.79598883 56.53083531 128.82865429 70.16943073 C128.84432974 76.50195353 128.86560245 82.83435571 128.89953613 89.16680908 C128.93206232 95.27462644 128.95005662 101.38232757 128.9578495 107.49022484 C128.96340513 109.82390359 128.97425347 112.15757577 128.99040794 114.49120522 C129.01209234 117.7525179 129.01518843 121.01334641 129.01379395 124.27471924 C129.02457977 125.24576096 129.0353656 126.21680267 129.04647827 127.2172699 C129.04235428 128.10488007 129.03823029 128.99249023 129.03398132 129.90699768 C129.0367467 130.67853841 129.03951208 131.45007914 129.04236126 132.24499989 C128.58090027 134.75638128 127.60431877 135.64850144 125.67321777 137.25396729 C122.47115795 135.84122713 120.32148243 134.15331264 117.85137939 131.68609619 C117.10543518 130.94579163 116.35949097 130.20548706 115.59094238 129.44274902 C114.7824585 128.63021667 113.97397461 127.81768433 113.14099121 126.98052979 C111.85264374 125.69743927 111.85264374 125.69743927 110.53826904 124.38842773 C108.18767047 122.04512003 105.84165739 119.69740327 103.49788189 117.34728241 C101.0451808 114.88951618 98.58760203 112.43663513 96.13079834 109.98297119 C92.00819467 105.86400429 87.88982235 101.7408419 83.77380371 97.61529541 C79.01052309 92.84111636 74.24006061 88.07420457 69.46583152 83.31097603 C65.3686846 79.22289302 61.27543298 75.13094048 57.18543649 71.03570366 C54.74175673 68.58890112 52.29673445 66.14348132 49.84819794 63.70153809 C47.12235588 60.98252442 44.40470275 58.25541829 41.68786621 55.52740479 C40.462995 54.30860626 40.462995 54.30860626 39.21337891 53.06518555 C38.11138153 51.9547287 38.11138153 51.9547287 36.98712158 50.82183838 C36.3433746 50.17733734 35.69962761 49.5328363 35.03637314 48.86880493 C33.67321777 47.25396729 33.67321777 47.25396729 33.67321777 45.25396729 C33.10474121 45.01162354 32.53626465 44.76927979 31.95056152 44.51959229 C26.46530414 41.47118166 21.99041722 36.01158223 18.11071777 31.12896729 C15.4773802 28.02297937 12.60587477 25.53836998 9.51306152 22.90631104 C7.27310624 20.89463145 5.55220057 18.60269578 3.67321777 16.25396729 C1.67779838 14.45441728 -0.3580026 12.7174636 -2.42443848 11.00006104 C-4.38218531 9.20311476 -5.90109965 7.49686355 -7.32678223 5.25396729 C-7.32678223 4.26396729 -7.32678223 3.27396729 -7.32678223 2.25396729 C-4.21017056 0.17622617 -3.53508047 0.00347248 0 0 Z " fill="#F77545" transform="translate(164.3267822265625,81.74603271484375)"/>
<path d="M0 0 C0.8178598 -0.0033284 1.6357196 -0.0066568 2.47836304 -0.01008606 C4.21164386 -0.01514955 5.94493444 -0.01749456 7.67822266 -0.01733398 C10.30518144 -0.01950582 12.93171008 -0.03762671 15.55859375 -0.05664062 C17.24739441 -0.05957776 18.93619705 -0.06156041 20.625 -0.0625 C21.78801132 -0.07327827 21.78801132 -0.07327827 22.97451782 -0.08427429 C29.53782414 -0.05736575 36.02644351 0.45446195 41.6484375 4.04296875 C45.86967022 8.39211761 46.02935918 12.3359926 46.046875 18.22265625 C46.0568602 19.39140793 46.0568602 19.39140793 46.06704712 20.58377075 C46.07715491 22.22948859 46.08186472 23.87524725 46.08154297 25.52099609 C46.08591092 28.02771198 46.12223267 30.53265853 46.16015625 33.0390625 C46.16602606 34.6419211 46.16999435 36.24478801 46.171875 37.84765625 C46.18624603 38.59159637 46.20061707 39.3355365 46.21542358 40.10202026 C46.17014934 45.30678032 45.20683585 48.30597158 41.7109375 52.16796875 C36.15815583 56.1937069 30.75287697 56.77347503 24.05859375 56.734375 C22.70923988 56.74367287 22.70923988 56.74367287 21.33262634 56.75315857 C19.44091873 56.76022349 17.5491485 56.75714128 15.6574707 56.74438477 C12.78413996 56.73052039 9.91407212 56.7646367 7.04101562 56.80273438 C5.19270755 56.80368581 3.34439544 56.80182547 1.49609375 56.796875 C0.64894302 56.81013321 -0.1982077 56.82339142 -1.07102966 56.83705139 C-7.42360574 56.73928561 -12.25676139 55.12780683 -17.2890625 51.16796875 C-20.35869188 46.85285241 -20.66507109 43.26749162 -20.65234375 38.046875 C-20.65284225 37.38388901 -20.65334076 36.72090302 -20.65385437 36.03782654 C-20.65152694 34.64359522 -20.6418775 33.24935865 -20.62524414 31.85522461 C-20.60166519 29.73968257 -20.6046914 27.62540577 -20.61132812 25.50976562 C-20.54741901 9.89976386 -20.54741901 9.89976386 -16.66796875 5.20703125 C-16.06855469 4.74039062 -15.46914063 4.27375 -14.8515625 3.79296875 C-13.95630859 3.06980469 -13.95630859 3.06980469 -13.04296875 2.33203125 C-8.97131862 -0.37031115 -4.68980987 0.00662733 0 0 Z " fill="#FCC487" transform="translate(306.2890625,309.83203125)"/>
<path d="M0 0 C18.15 0 36.3 0 55 0 C55 3.63 55 7.26 55 11 C41.14 11 27.28 11 13 11 C13 14.3 13 17.6 13 21 C24.88 21 36.76 21 49 21 C49 24.63 49 28.26 49 32 C36.79 32 24.58 32 12 32 C12 35.63 12 39.26 12 43 C26.19 43 40.38 43 55 43 C55 46.63 55 50.26 55 54 C36.6389254 54.81604776 18.37827043 55.09329071 0 55 C0 36.85 0 18.7 0 0 Z " fill="#FCC688" transform="translate(150,311)"/>
<path d="M0 0 C14 0 14 0 19.04589844 3.47241211 C20.60338203 5.03875569 22.12364162 6.64278457 23.609375 8.27734375 C24.83772064 9.5389608 24.83772064 9.5389608 26.09088135 10.82606506 C28.67901168 13.49862328 31.21418075 16.21535106 33.75 18.9375 C35.49662454 20.76300122 37.24659729 22.58530513 39 24.40429688 C42.83583257 28.38564419 46.63754143 32.39668097 50.41107178 36.43711853 C51.93345058 38.09521581 51.93345058 38.09521581 54 39 C54 26.46 54 13.92 54 1 C57.63 1 61.26 1 65 1 C65 18.82 65 36.64 65 55 C50 55 50 55 44.3125 50.3125 C42.82751177 48.58129611 41.38746102 46.81030629 40 45 C35.45469029 39.27040776 30.43708083 34.47837267 24.921875 29.69921875 C22.50827821 27.56524598 20.24618381 25.30857781 18 23 C17.236875 22.278125 16.47375 21.55625 15.6875 20.8125 C14 19 14 19 14 17 C13.34 17 12.68 17 12 17 C12 29.54 12 42.08 12 55 C8.04 55 4.08 55 0 55 C0 36.85 0 18.7 0 0 Z " fill="#FCC788" transform="translate(71,310)"/>
<path d="M0 0 C2.75105422 -0.10812003 5.49785087 -0.18734945 8.25 -0.25 C9.02730469 -0.28351563 9.80460938 -0.31703125 10.60546875 -0.3515625 C16.39313225 -0.45049692 16.39313225 -0.45049692 19.546875 1.890625 C21 4 21 4 21 6 C21.5775 6.20625 22.155 6.4125 22.75 6.625 C25.8061502 8.49264734 27.05636743 11.02381262 29 14 C30.31558703 15.02323436 31.64377755 16.03126968 33 17 C33 17.66 33 18.32 33 19 C38.58767284 14.40196949 43.41301494 9.4405348 48.1171875 3.94140625 C48.73851562 3.30074219 49.35984375 2.66007812 50 2 C50.66 2 51.32 2 52 2 C52 1.34 52 0.68 52 0 C57.61 0 63.22 0 69 0 C67.03982983 3.92034035 65.35367586 5.84264559 62.24609375 8.84375 C61.30958984 9.76027344 60.37308594 10.67679687 59.40820312 11.62109375 C57.92051113 13.06523994 56.43042946 14.50681618 54.93774414 15.94580078 C53.49250111 17.34273419 52.05666061 18.74937469 50.62109375 20.15625 C49.7592749 20.98962891 48.89745605 21.82300781 48.00952148 22.68164062 C46.06762468 24.92198226 45.22453794 26.07391615 45 29 C46.1303385 30.96265401 46.1303385 30.96265401 47.9375 32.75 C48.58203125 33.44222656 49.2265625 34.13445312 49.890625 34.84765625 C52.64099125 37.65404848 55.41879048 40.43061678 58.21875 43.1875 C60.32428329 45.32997247 62.14809709 47.63722732 64 50 C64.9075 50.9075 65.815 51.815 66.75 52.75 C67.4925 53.4925 68.235 54.235 69 55 C69 55.33 69 55.66 69 56 C66.24894578 56.10812003 63.50214913 56.18734945 60.75 56.25 C59.58404297 56.30027344 59.58404297 56.30027344 58.39453125 56.3515625 C52.60686775 56.45049692 52.60686775 56.45049692 49.453125 54.109375 C48 52 48 52 48 50 C47.34 50 46.68 50 46 50 C43.94281031 47.53863839 42.06999265 44.96544457 40.16796875 42.3828125 C37.87100071 39.858217 36.22831906 38.98032725 33 38 C31.64508116 39.49932062 30.29111322 40.99950054 28.9375 42.5 C27.68259766 43.85738281 27.68259766 43.85738281 26.40234375 45.2421875 C24.01018665 47.85038618 24.01018665 47.85038618 22.44140625 50.4453125 C20.75893195 52.98954193 19.63060994 54.41383322 17 56 C11.3831067 56.95969833 5.64634407 56.45729671 0 56 C0.66 54.68 1.32 53.36 2 52 C2.66 52 3.32 52 4 52 C4.38091797 51.12601562 4.38091797 51.12601562 4.76953125 50.234375 C6.13320333 47.75811967 7.64225203 46.19479374 9.6875 44.25 C13.13510908 40.89641662 16.33461068 37.41813999 19.45703125 33.76171875 C20.91080366 32.10184189 22.42141586 30.54066019 24 29 C22.56806913 24.22104052 19.70955001 21.35595575 16.1875 18 C15.66607422 17.49210937 15.14464844 16.98421875 14.60742188 16.4609375 C13.57257401 15.45322048 12.53493133 14.4483648 11.49438477 13.4465332 C9.30249026 11.32482515 7.1551988 9.15887661 5 7 C4.071875 6.113125 3.14375 5.22625 2.1875 4.3125 C0 2 0 2 0 0 Z " fill="#FCC789" transform="translate(212,310)"/>
<path d="M0 0 C1.1149585 -0.00786278 1.1149585 -0.00786278 2.25244141 -0.0158844 C3.82257845 -0.02230233 5.39276358 -0.02097049 6.96289062 -0.01245117 C9.36675436 -0.00393546 11.7682458 -0.03270986 14.171875 -0.06445312 C15.69791595 -0.06606511 17.22396112 -0.06548765 18.75 -0.0625 C19.46881348 -0.07373398 20.18762695 -0.08496796 20.92822266 -0.09654236 C24.05302879 -0.05284255 25.90969889 0.03511347 28.32666016 2.10498047 C29.61033223 4.95632287 29.76293495 7.06099153 29.7734375 10.1875 C29.77923828 11.83975586 29.77923828 11.83975586 29.78515625 13.52539062 C29.77355469 14.67072266 29.76195312 15.81605469 29.75 16.99609375 C29.76160156 18.14529297 29.77320313 19.29449219 29.78515625 20.47851562 C29.78128906 21.57873047 29.77742188 22.67894531 29.7734375 23.8125 C29.77005371 24.81869385 29.76666992 25.8248877 29.76318359 26.86157227 C29.375 29.43359375 29.375 29.43359375 28.32666016 31.26000977 C25.29087366 33.0855071 22.18984048 32.86109177 18.75 32.83203125 C17.6350415 32.83633652 17.6350415 32.83633652 16.49755859 32.84072876 C14.9274011 32.84276851 13.35721814 32.83724475 11.78710938 32.82470703 C9.38353668 32.80865078 6.98164539 32.82455727 4.578125 32.84375 C3.05207962 32.84176755 1.52603529 32.83792384 0 32.83203125 C-0.71881348 32.83810394 -1.43762695 32.84417664 -2.17822266 32.85043335 C-4.98792009 32.8108239 -7.12890248 32.72787627 -9.57666016 31.27587891 C-11.0732725 28.64582843 -11.01375679 26.57528611 -11.0234375 23.55859375 C-11.02730469 22.40875 -11.03117187 21.25890625 -11.03515625 20.07421875 C-11.02355469 18.8728125 -11.01195312 17.67140625 -11 16.43359375 C-11.01160156 15.2321875 -11.02320313 14.03078125 -11.03515625 12.79296875 C-11.03128906 11.643125 -11.02742188 10.49328125 -11.0234375 9.30859375 C-11.02005371 8.25414062 -11.01666992 7.1996875 -11.01318359 6.11328125 C-10.625 3.43359375 -10.625 3.43359375 -9.57666016 1.59350586 C-6.53895299 -0.21186652 -3.43477144 -0.01402763 0 0 Z " fill="#F8713F" transform="translate(309.625,321.56640625)"/>
<path d="M0 0 C0.66 0 1.32 0 2 0 C2.2475 0.61875 2.495 1.2375 2.75 1.875 C3.80249898 4.12347802 3.80249898 4.12347802 5.875 4.875 C8.97301378 6.51512494 10.11337552 9.08430763 12 12 C13.6292274 13.70328319 15.28641357 15.38161281 17 17 C17.99 16.505 17.99 16.505 19 16 C19.28875 16.928125 19.5775 17.85625 19.875 18.8125 C20.8875 22.09791667 20.8875 22.09791667 23 25 C23.21118164 27.22973633 23.21118164 27.22973633 23.16015625 29.83203125 C23.14863525 30.78803223 23.13711426 31.7440332 23.12524414 32.72900391 C23.10453857 33.74655762 23.08383301 34.76411133 23.0625 35.8125 C22.98616296 42.289673 22.93803 48.66954138 23.5625 55.125 C24.13835978 61.77138164 23.78146779 68.26088916 23.41088867 74.90625 C22.68542424 88.14745997 22.89304641 101.24967787 23.7121582 114.47973633 C23.9932802 119.42988262 23.93617872 124.1460025 23.24609375 129.0703125 C22.92003743 131.20341654 22.92003743 131.20341654 23.125 134.1875 C22.79429411 141.62838243 18.32005347 146.31579964 13.375 151.375 C12.74835449 152.02984375 12.12170898 152.6846875 11.47607422 153.359375 C9.66087218 155.24976293 7.83272526 157.12661701 6 159 C5.12859375 159.89976562 4.2571875 160.79953125 3.359375 161.7265625 C-0.61540372 165.77083036 -4.73166731 169.56398405 -9.03515625 173.25390625 C-11.10820324 175.09615675 -13.05435802 177.02401662 -15 179 C-18.27444148 182.31947309 -21.65372137 185.45013742 -25.2109375 188.46484375 C-26.63358524 189.68558734 -27.98695454 190.98695454 -29.3125 192.3125 C-38.93836426 198.35664732 -53.57100653 196.30928519 -64.50390625 196.30078125 C-66.59415267 196.30467488 -68.68439831 196.30901091 -70.77464294 196.31376648 C-75.13942032 196.32119739 -79.50411674 196.3209594 -83.86889648 196.31567383 C-89.4424712 196.30987163 -95.01571442 196.32684375 -100.58923435 196.3500185 C-104.90026258 196.3647956 -109.21121159 196.36562233 -113.52226067 196.36250877 C-115.57661536 196.36301959 -117.63097476 196.36821207 -119.68530464 196.37832069 C-122.56328672 196.39075057 -125.44063054 196.38385525 -128.31860352 196.37231445 C-129.15368942 196.37995819 -129.98877533 196.38760193 -130.84916687 196.39547729 C-138.83749631 196.32519001 -146.92088528 194.91815079 -152.7890625 189.1484375 C-153.6130957 188.35276367 -154.43712891 187.55708984 -155.28613281 186.73730469 C-156.18170898 185.83399414 -157.07728516 184.93068359 -158 184 C-159.05222989 182.95912121 -160.10533084 181.91912244 -161.15917969 180.87988281 C-164.58720639 177.48398876 -167.98316895 174.05699369 -171.375 170.625 C-173.6715463 168.30175706 -175.97147596 165.98193846 -178.2734375 163.6640625 C-178.79014008 163.13906158 -179.30684265 162.61406067 -179.83920288 162.07315063 C-181.92511987 159.97311314 -183.96787455 158.02355689 -186.35791016 156.27099609 C-186.8997998 155.85156738 -187.44168945 155.43213867 -188 155 C-188 154.34 -188 153.68 -188 153 C-188.59167969 152.74089844 -189.18335938 152.48179687 -189.79296875 152.21484375 C-192.15831069 150.91285907 -193.550917 149.59509577 -195.3125 147.5625 C-196.11107422 146.66724609 -196.11107422 146.66724609 -196.92578125 145.75390625 C-197.28027344 145.17511719 -197.63476562 144.59632813 -198 144 C-197.67 143.01 -197.34 142.02 -197 141 C-196.09251007 141.91415176 -196.09251007 141.91415176 -195.16668701 142.84677124 C-189.46308567 148.59045397 -183.75467903 154.32930783 -178.0408287 160.06279564 C-175.10348455 163.010575 -172.16802907 165.96018503 -169.23681641 168.9140625 C-166.40773998 171.76487646 -163.57379976 174.61077085 -160.73642731 177.45332718 C-159.65501667 178.53843192 -158.5753673 179.6252949 -157.49752045 180.71393967 C-155.98702792 182.23895905 -154.47038231 183.75759511 -152.95214844 185.27490234 C-152.09055115 186.14094086 -151.22895386 187.00697937 -150.34124756 187.89926147 C-146.77223181 191.10164341 -144.12946851 192.24659332 -139.33863831 192.27415466 C-137.94027237 192.28911736 -137.94027237 192.28911736 -136.51365662 192.30438232 C-135.49796097 192.305047 -134.48226532 192.30571167 -133.43579102 192.30639648 C-132.36059204 192.31472 -131.28539307 192.32304352 -130.1776123 192.33161926 C-126.61967358 192.35573572 -123.06191806 192.3644928 -119.50390625 192.37109375 C-117.03295333 192.38005766 -114.56200097 192.38917946 -112.09104919 192.39845276 C-106.91021403 192.41494899 -101.72944354 192.42264425 -96.54858398 192.42553711 C-89.90586893 192.43092645 -83.26376037 192.46862753 -76.62121677 192.51428127 C-71.51773346 192.54400104 -66.41439723 192.55125955 -61.31083488 192.55226326 C-58.86157384 192.55647437 -56.4123127 192.56894409 -53.96313667 192.58978081 C-50.5395027 192.61659288 -47.11728836 192.61189934 -43.69360352 192.59936523 C-42.6799321 192.61419952 -41.66626068 192.62903381 -40.62187195 192.64431763 C-34.93072939 192.60529389 -34.93072939 192.60529389 -30.12332153 189.7532196 C-29.42262543 188.84465714 -28.72192932 187.93609467 -28 187 C-26.44478276 185.44934043 -24.8891887 183.89905871 -23.33325195 182.34912109 C-18.91723958 177.94905047 -14.50339037 173.54682145 -10.09115314 169.14296532 C-7.42951421 166.48656625 -4.7669372 163.83112103 -2.10229492 161.17773438 C0.48624306 158.60005488 3.07233605 156.01994566 5.65674782 153.43812943 C6.63946351 152.45725902 7.62305783 151.47726807 8.60754967 150.49818039 C9.98116764 149.13181459 11.35138037 147.76202804 12.72143555 146.39208984 C13.50133347 145.61441254 14.28123138 144.83673523 15.08476257 144.03549194 C18.16376576 140.76316336 19.24880693 138.75874924 19.30107117 134.34068298 C19.32470482 132.90473282 19.32470482 132.90473282 19.34881592 131.43977356 C19.3592392 129.86651558 19.3592392 129.86651558 19.36987305 128.26147461 C19.39199608 126.60242096 19.39199608 126.60242096 19.41456604 124.90985107 C19.45917386 121.24069137 19.4873397 117.5716912 19.51171875 113.90234375 C19.52111795 112.64883181 19.53051716 111.39531986 19.54020119 110.10382271 C19.57800754 104.83234648 19.61190497 99.56089394 19.63057232 94.28931332 C19.65733004 86.75267554 19.71473628 79.21776252 19.81633729 71.68174928 C19.89378295 65.73217271 19.92135122 59.7829781 19.93177223 53.83288765 C19.94334062 51.30951939 19.97015076 48.78617191 20.01270103 46.26313591 C20.93964304 30.85837383 20.93964304 30.85837383 14.63232422 17.56225586 C12.31058265 15.57525505 12.31058265 15.57525505 10 14 C8.96056537 13.01003915 7.93549563 12.0044922 6.93359375 10.9765625 C5.24931224 9.3898059 3.56172916 7.8065475 1.87109375 6.2265625 C0 4 0 4 0 0 Z " fill="#F77946" transform="translate(302,82)"/>
<path d="M0 0 C0.7734375 0.2165625 0.7734375 0.2165625 1.5625 0.4375 C6.09303847 1.48300888 10.58759878 1.25423222 15.125 0.4375 C18 0 18 0 20.77389526 0.46853638 C24.08855738 1.01458881 27.13582736 1.09995025 30.49267578 1.06591797 C31.76063995 1.05615936 33.02860413 1.04640076 34.33499146 1.03634644 C35.00478153 1.02898342 35.67457161 1.02162041 36.36465836 1.01403427 C38.47495034 0.9918763 40.58515084 0.97788662 42.69552612 0.96633911 C48.69183774 0.93286252 54.68799632 0.8909754 60.68408203 0.82861328 C64.36087535 0.79095313 68.0375163 0.76794252 71.71447372 0.75430679 C73.11233668 0.74626197 74.51017929 0.73266626 75.90793228 0.71337509 C77.86052077 0.68687841 79.81335234 0.68063941 81.76611328 0.67529297 C82.87608673 0.66561493 83.98606018 0.65593689 85.12966919 0.64596558 C88.31250059 1.03854467 89.66749756 1.8567711 92 4 C91 5 91 5 89.2025919 5.11352539 C88.41269839 5.10828857 87.62280489 5.10305176 86.80897522 5.09765625 C85.90490936 5.09443863 85.00084351 5.09122101 84.06938171 5.08790588 C83.06945694 5.07952194 82.06953217 5.071138 81.03930664 5.0625 C78.86768196 5.05305007 76.6960561 5.04386688 74.52442932 5.03491211 C73.36584475 5.02861786 72.20726017 5.02232361 71.01356697 5.01583862 C64.89381448 4.98893954 58.77409192 4.99874482 52.65429688 5.00390625 C44.85899518 5.01011006 37.0644172 5.00490828 29.26928711 4.94873047 C22.97832839 4.90436452 16.68870521 4.90397567 10.39767265 4.93286133 C8.00277865 4.93593651 5.60780767 4.92309614 3.2130909 4.89379883 C-11.31250706 4.09736856 -11.31250706 4.09736856 -23.93188477 9.96191406 C-25.32942337 11.6069012 -26.6864556 13.28719588 -28 15 C-29.6015955 16.58991584 -31.22473793 18.15837903 -32.8671875 19.70605469 C-34.53931739 21.3584399 -36.20849742 23.01381456 -37.875 24.671875 C-39.21171753 26.00004242 -39.21171753 26.00004242 -40.57543945 27.3550415 C-42.43887533 29.20910865 -44.30092208 31.06457293 -46.16162109 32.92138672 C-48.53980067 35.29402491 -50.92717126 37.65719368 -53.31665039 40.01844406 C-55.61348309 42.29218344 -57.89976366 44.57648909 -60.1875 46.859375 C-61.04263184 47.70216003 -61.89776367 48.54494507 -62.77880859 49.41326904 C-63.56723145 50.20469299 -64.3556543 50.99611694 -65.16796875 51.81152344 C-65.86172607 52.50163513 -66.5554834 53.19174683 -67.27026367 53.902771 C-70.29973572 57.57587223 -71.24679705 61.14936135 -71.2784729 65.85322571 C-71.28963638 66.80248428 -71.30079987 67.75174286 -71.31230164 68.72976685 C-71.31446182 69.75907318 -71.31662201 70.78837952 -71.31884766 71.84887695 C-71.32889328 72.94200699 -71.3389389 74.03513702 -71.34928894 75.16139221 C-71.38015082 78.77034994 -71.39716469 82.37923336 -71.4140625 85.98828125 C-71.4327717 88.49220927 -71.45234492 90.99613098 -71.4727478 93.50004578 C-71.51885374 99.41431336 -71.55625264 105.3285953 -71.58942068 111.24294585 C-71.63143417 118.63924436 -71.68698893 126.0354308 -71.7421875 133.43164062 C-71.83898467 146.62103278 -71.9237538 159.81047385 -72 173 C-72.66 173 -73.32 173 -74 173 C-75.27571462 167.11486367 -75.14402285 161.28216878 -75.1328125 155.29296875 C-75.13376923 154.17183182 -75.13472595 153.05069489 -75.13571167 151.89558411 C-75.13639042 149.53463688 -75.13455745 147.17368776 -75.13037109 144.81274414 C-75.12499343 141.18306345 -75.13033927 137.5535051 -75.13671875 133.92382812 C-75.13605841 131.63020806 -75.13477815 129.33658807 -75.1328125 127.04296875 C-75.13483673 125.95138962 -75.13686096 124.85981049 -75.13894653 123.7351532 C-75.13579437 122.73353653 -75.13264221 121.73191986 -75.12939453 120.69995117 C-75.12859894 119.81425949 -75.12780334 118.92856781 -75.12698364 118.01603699 C-75 116 -75 116 -74 115 C-73.92773498 113.14712498 -73.9161878 111.29166122 -73.9375 109.4375 C-73.94652344 108.42558594 -73.95554687 107.41367188 -73.96484375 106.37109375 C-73.97644531 105.58863281 -73.98804687 104.80617188 -74 104 C-74.33 104 -74.66 104 -75 104 C-75.1018729 97.73793519 -75.17166281 91.47608608 -75.21972656 85.21337891 C-75.23977468 83.08536798 -75.26702054 80.95741168 -75.30175781 78.82958984 C-75.35057548 75.76125567 -75.37303726 72.69365327 -75.390625 69.625 C-75.41127014 68.68197021 -75.43191528 67.73894043 -75.45318604 66.76733398 C-75.45568793 59.31169828 -73.74377308 54.03406989 -68.7109375 48.46875 C-67.55464844 47.49421875 -67.55464844 47.49421875 -66.375 46.5 C-65.59898438 45.8296875 -64.82296875 45.159375 -64.0234375 44.46875 C-62 43 -62 43 -60 43 C-59.7525 42.4225 -59.505 41.845 -59.25 41.25 C-57.80606301 38.65091342 -56.26478013 36.92163162 -54 35 C-53.01 35 -52.02 35 -51 35 C-50.731875 34.360625 -50.46375 33.72125 -50.1875 33.0625 C-49 31 -49 31 -46 30 C-45.67 29.01 -45.34 28.02 -45 27 C-44.34 27 -43.68 27 -43 27 C-43 26.01 -43 25.02 -43 24 C-42.34 24 -41.68 24 -41 24 C-40.731875 23.360625 -40.46375 22.72125 -40.1875 22.0625 C-39 20 -39 20 -36 19 C-35.690625 18.360625 -35.38125 17.72125 -35.0625 17.0625 C-33.74215782 14.49948282 -32.5185326 14.2592663 -30 13 C-29.67 12.34 -29.34 11.68 -29 11 C-27.75491604 8.50983207 -26.53283204 8.01313282 -24 7 C-24 6.34 -24 5.68 -24 5 C-17.04748034 1.48450473 -11.36238005 0.62146084 -3.58984375 0.95703125 C-2.30787109 0.97830078 -2.30787109 0.97830078 -1 1 C-0.67 0.67 -0.34 0.34 0 0 Z " fill="#F8804D" transform="translate(175,47)"/>
<path d="M0 0 C2.91753534 1.3163717 4.91927067 2.7597735 7.1875 5 C10.63527071 8.07382595 13.66975911 8.96489423 18.1796875 9.67578125 C20 10 20 10 21 11 C22.91342356 21.66787487 22.14497901 32.99212284 22.1328125 43.78515625 C22.13348693 45.89456697 22.13445812 48.00397761 22.13571167 50.11338806 C22.13717918 54.51171618 22.1350627 58.91002388 22.13037109 63.30834961 C22.12464265 68.95434452 22.12797836 74.60029221 22.13394356 80.24628544 C22.13754785 84.59128682 22.13641174 88.9362769 22.13381577 93.28127861 C22.13314776 95.3645675 22.13397051 97.4478574 22.13629532 99.5311451 C22.13882307 102.42972693 22.13498094 105.32823066 22.12939453 108.22680664 C22.13141876 109.09065475 22.13344299 109.95450287 22.13552856 110.8445282 C22.11427066 116.77145867 22.11427066 116.77145867 21 119 C19.35 118.67 17.7 118.34 16 118 C16.33 117.34 16.66 116.68 17 116 C18.32 116 19.64 116 21 116 C20.84112808 114.71593765 20.68225616 113.43187531 20.51856995 112.10890198 C19.97034196 107.15393027 19.7907984 102.23923978 19.70288086 97.25756836 C19.68322769 96.32966492 19.66357452 95.40176147 19.64332581 94.44573975 C19.57998611 91.41050585 19.52236908 88.37519292 19.46484375 85.33984375 C19.42178725 83.22277616 19.37837055 81.10571587 19.33460999 78.98866272 C19.22088579 73.44038531 19.11202971 67.89202283 19.00421143 62.34362793 C18.89313612 56.67238477 18.77742352 51.0012364 18.66210938 45.33007812 C18.43688571 34.22013963 18.21680844 23.11010568 18 12 C16.89043945 11.85167725 15.78087891 11.70335449 14.63769531 11.55053711 C9.15057241 10.72010341 6.81256214 9.13188405 3.25 4.9375 C2.63640625 4.22464844 2.0228125 3.51179688 1.390625 2.77734375 C0 1 0 1 0 0 Z " fill="#FBB89E" transform="translate(360,278)"/>
<path d="M0 0 C1.64906834 -0.00067589 3.29813658 -0.00164828 4.94720459 -0.00289917 C8.36569183 -0.00435777 11.7841526 -0.00227827 15.20263672 0.00244141 C19.58044108 0.00819235 23.95818484 0.00481458 28.33598709 -0.00113106 C31.72457336 -0.00474045 35.11314517 -0.00359727 38.50173187 -0.00100327 C40.11725624 -0.00033785 41.73278193 -0.00114892 43.34830475 -0.00348282 C45.59454358 -0.00602146 47.84068267 -0.0021541 50.08691406 0.00341797 C51.36213928 0.00421356 52.6373645 0.00500916 53.95123291 0.00582886 C56.57189302 0.10915638 58.68919432 0.34853919 61.171875 1.1328125 C61.171875 1.7928125 61.171875 2.4528125 61.171875 3.1328125 C30.151875 3.1328125 -0.868125 3.1328125 -32.828125 3.1328125 C-33.158125 2.4728125 -33.488125 1.8128125 -33.828125 1.1328125 C-22.53742225 0.29155621 -11.31978653 -0.01664187 0 0 Z " fill="#F9946D" transform="translate(195.828125,30.8671875)"/>
<path d="M0 0 C0.66 0.66 1.32 1.32 2 2 C3.98821313 2.39764263 5.98944339 2.73775349 8 3 C8 3.99 8 4.98 8 6 C8.928125 6.3403125 8.928125 6.3403125 9.875 6.6875 C12.71272534 8.44021271 13.0163332 9.83821386 14 13 C14.34160156 13.99128906 14.68320312 14.98257812 15.03515625 16.00390625 C16.41538053 20.86977088 16.32992045 25.72594344 16.3125 30.75 C16.32861328 31.69488281 16.34472656 32.63976562 16.36132812 33.61328125 C16.36197266 34.51949219 16.36261719 35.42570312 16.36328125 36.359375 C16.36626221 37.17889648 16.36924316 37.99841797 16.37231445 38.84277344 C15.92003654 41.46331612 15.0239913 42.34227386 13 44 C12.98541748 43.21874756 12.97083496 42.43749512 12.95581055 41.63256836 C12.88099502 38.06706632 12.78444367 34.50246623 12.6875 30.9375 C12.66494141 29.70837891 12.64238281 28.47925781 12.61914062 27.21289062 C12.56094092 16.93983489 12.56094092 16.93983489 7.38671875 8.4765625 C6.82597656 8.19554687 6.26523437 7.91453125 5.6875 7.625 C5.13449219 7.32851563 4.58148438 7.03203125 4.01171875 6.7265625 C-1.39004011 4.775636 -7.02060199 4.82769559 -12.6875 4.796875 C-13.91859497 4.78832489 -13.91859497 4.78832489 -15.17456055 4.77960205 C-16.90249356 4.77019593 -18.63044416 4.76363562 -20.35839844 4.75976562 C-22.99185419 4.75003011 -25.62453848 4.71895381 -28.2578125 4.6875 C-29.94270374 4.68097159 -31.62760051 4.67572048 -33.3125 4.671875 C-34.09391357 4.6595282 -34.87532715 4.6471814 -35.68041992 4.63446045 C-41.22043006 4.65689879 -45.51947329 5.62907796 -49.6796875 9.60546875 C-50.07414062 10.12753906 -50.46859375 10.64960938 -50.875 11.1875 C-51.57625 12.115625 -52.2775 13.04375 -53 14 C-53.66 13.34 -54.32 12.68 -55 12 C-54.06163303 8.6218789 -53.13426079 7.11461287 -50.4375 4.8125 C-43.47125334 1.13938813 -36.76546178 0.7534774 -29 1 C-29 1.66 -29 2.32 -29 3 C-15.22579583 2.63979527 -15.22579583 2.63979527 -1.71484375 0.20703125 C-1.14894531 0.13871094 -0.58304687 0.07039063 0 0 Z " fill="#F78354" transform="translate(340,306)"/>
<path d="M0 0 C0.88761017 -0.00274933 1.77522034 -0.00549866 2.68972778 -0.0083313 C3.6607695 -0.00114075 4.63181122 0.0060498 5.63227844 0.01345825 C7.16912292 0.01302017 7.16912292 0.01302017 8.73701477 0.01257324 C12.12967851 0.0139686 15.52212369 0.02953964 18.91474915 0.04519653 C21.26458618 0.04892593 23.61442477 0.05177325 25.96426392 0.05377197 C32.15389792 0.0614142 38.34343831 0.08106783 44.53303528 0.10317993 C50.84710931 0.12362562 57.16119844 0.13277096 63.47529602 0.14285278 C75.86791531 0.1643131 88.26046508 0.19845621 100.6530304 0.24050903 C100.3230304 0.90050903 99.9930304 1.56050903 99.6530304 2.24050903 C88.10075637 2.39423564 76.54842591 2.54241731 64.9959898 2.68347263 C59.63203722 2.74914181 54.26812321 2.81673831 48.9042511 2.88870239 C43.73016999 2.95804985 38.55604885 3.02238307 33.38186073 3.08320427 C31.4054366 3.10732481 29.42903386 3.13326808 27.4526577 3.16104317 C24.68964866 3.1995653 21.92663533 3.23167164 19.16352844 3.26223755 C17.93138359 3.28165657 17.93138359 3.28165657 16.67434692 3.3014679 C13.39327553 3.33214196 10.79002883 3.28617518 7.6530304 2.24050903 C5.84430663 2.0969157 4.02970463 2.02004783 2.2155304 1.99050903 C1.26806946 1.96472778 0.32060852 1.93894653 -0.65556335 1.91238403 C-3.737253 2.28809075 -5.06669515 3.19203553 -7.3469696 5.24050903 C-7.3469696 4.25050903 -7.3469696 3.26050903 -7.3469696 2.24050903 C-4.22074698 0.15636062 -3.54768826 -0.00847715 0 0 Z " fill="#F86E36" transform="translate(164.3469696044922,81.75949096679688)"/>
<path d="M0 0 C3.53935903 0.47544655 6.84231624 0.60846533 10.40858459 0.57243347 C11.68292862 0.56267487 12.95727264 0.55291626 14.27023315 0.54286194 C15.27603896 0.53181742 15.27603896 0.53181742 16.30216408 0.52054977 C18.41618744 0.49836444 20.53011922 0.48439399 22.64422607 0.47285461 C28.64978946 0.43939384 34.65519835 0.3973088 40.66053772 0.33512878 C44.34495853 0.29756079 48.02922831 0.27448878 51.71381187 0.2608223 C53.11611871 0.25275869 54.51840486 0.23913657 55.9206028 0.21989059 C57.87349123 0.19352224 59.82661927 0.1871688 61.77967834 0.18180847 C63.44677605 0.16729141 63.44677605 0.16729141 65.14755249 0.15248108 C66.01317307 0.26931244 66.87879364 0.3861438 67.77064514 0.5065155 C68.76064514 1.9915155 68.76064514 1.9915155 69.77064514 3.5065155 C39.08064514 3.5065155 8.39064514 3.5065155 -23.22935486 3.5065155 C-19.55619707 1.05774365 -16.25447423 0.79037482 -11.97935486 0.3190155 C-11.24072205 0.22426941 -10.50208923 0.12952332 -9.74107361 0.03190613 C-9.01017517 -0.05252747 -8.27927673 -0.13696106 -7.52622986 -0.22395325 C-6.54154724 -0.33839783 -6.54154724 -0.33839783 -5.53697205 -0.45515442 C-3.22935486 -0.4934845 -3.22935486 -0.4934845 0 0 Z " fill="#F6713F" transform="translate(195.22935485839844,47.49348449707031)"/>
<path d="M0 0 C0.33 0 0.66 0 1 0 C1.06942177 13.5080708 1.1227715 27.01609936 1.15543652 40.52431202 C1.17111178 46.79630127 1.19238415 53.06816874 1.22631836 59.34008789 C1.25884522 65.38955067 1.27683899 71.4388961 1.28463173 77.48843956 C1.29018723 79.79978979 1.30103534 82.1111334 1.31719017 84.42243385 C1.33887547 87.65261488 1.34197062 90.88230707 1.34057617 94.11254883 C1.35675491 95.5550853 1.35675491 95.5550853 1.3732605 97.02676392 C1.36707451 98.34555794 1.36707451 98.34555794 1.36076355 99.69099426 C1.36352893 100.45516065 1.36629431 101.21932703 1.36914349 102.00664997 C0.90623482 104.50632567 -0.07904463 105.39988397 -2 107 C-2.99 106.67 -3.98 106.34 -5 106 C-5 105.34 -5 104.68 -5 104 C-2.525 103.505 -2.525 103.505 0 103 C-0.22937256 101.51560425 -0.22937256 101.51560425 -0.46337891 100.0012207 C-2.87928447 82.94784805 -1.99876078 65.50865281 -1.66339111 48.35070801 C-1.61214504 45.63002203 -1.56857423 42.90923509 -1.52498245 40.18841743 C-1.30786043 26.77305705 -1.0814323 13.37836409 0 0 Z " fill="#F87038" transform="translate(292,112)"/>
<path d="M0 0 C2 2 2 2 2.16015625 5.859375 C2.13602659 7.48972975 2.10289715 9.1199672 2.0625 10.75 C1.98024977 16.50536557 2.00952039 22.13783654 2.5625 27.875 C3.12684586 34.60795963 2.78633812 41.17499442 2.41088867 47.90527344 C1.68563737 61.14734135 1.90207969 74.24647737 2.70996094 87.47753906 C3.1223 94.8283354 2.67714715 101.8122265 1 109 C0.67 109 0.34 109 0 109 C0 73.03 0 37.06 0 0 Z " fill="#F67343" transform="translate(323,109)"/>
<path d="M0 0 C0.99 0.66 1.98 1.32 3 2 C1.32364391 6.88937192 -0.55157398 10.60152964 -5.16796875 13.23828125 C-10.32314139 15.56410332 -14.10306598 16.32530728 -19.65625 15.3671875 C-25.75529671 14.41167018 -32.0216085 14.83387807 -38.125 15.5625 C-44.56970928 16.28996321 -50.69611482 15.42345794 -57 14 C-56.67 13.01 -56.34 12.02 -56 11 C-54.06350586 11.0314209 -54.06350586 11.0314209 -52.08789062 11.06347656 C-47.27224941 11.13618646 -42.45665619 11.18191225 -37.640625 11.21972656 C-35.56111475 11.23977159 -33.48166037 11.26701513 -31.40234375 11.30175781 C-28.40350513 11.35058948 -25.40541537 11.37304028 -22.40625 11.390625 C-21.48509399 11.41127014 -20.56393799 11.43191528 -19.61486816 11.45318604 C-13.57170278 11.45526006 -9.05033097 10.42683939 -4 7 C-2.30187862 5.2078501 -2.30187862 5.2078501 -1.5 3.25 C-1.005 2.1775 -0.51 1.105 0 0 Z " fill="#F88657" transform="translate(352,354)"/>
<path d="M0 0 C0.99 0.495 0.99 0.495 2 1 C1.979375 1.9075 1.95875 2.815 1.9375 3.75 C1.8723158 6.85167706 1.8723158 6.85167706 2.5625 9.1875 C3 11 3 11 2 14 C1.90320915 15.57361618 1.86186763 17.15096509 1.85473633 18.72753906 C1.84835648 19.68573547 1.84197662 20.64393188 1.83540344 21.63116455 C1.83429062 22.6655365 1.8331778 23.69990845 1.83203125 24.765625 C1.82870285 25.83238464 1.82537445 26.89914429 1.82194519 27.99822998 C1.81687919 30.25776742 1.81453676 32.51731235 1.81469727 34.77685547 C1.81251742 38.22245758 1.79437638 41.66773609 1.77539062 45.11328125 C1.77245526 47.30989474 1.77047142 49.50650975 1.76953125 51.703125 C1.76234573 52.72940002 1.75516022 53.75567505 1.74775696 54.81304932 C1.76517916 60.31048185 2.27655717 64.78655342 4 70 C4 86 4 86 3 91 C3 91.99 3 92.98 3 94 C2.34 94 1.68 94 1 94 C1.165 95.03125 1.33 96.0625 1.5 97.125 C1.93321848 100.48244326 2.08235703 103.62336157 2 107 C1.34 106.67 0.68 106.34 0 106 C0 71.02 0 36.04 0 0 Z " fill="#F6B294" transform="translate(46,290)"/>
<path d="M0 0 C3.68890725 0.45338525 7.38755996 0.33510617 11.09765625 0.2578125 C11.09765625 0.9178125 11.09765625 1.5778125 11.09765625 2.2578125 C-18.60234375 2.2578125 -48.30234375 2.2578125 -78.90234375 2.2578125 C-78.90234375 1.5978125 -78.90234375 0.9378125 -78.90234375 0.2578125 C-78.10578369 0.26003311 -77.30922363 0.26225372 -76.48852539 0.26454163 C-68.95635194 0.2846361 -61.42419162 0.29983317 -53.89199829 0.30962467 C-50.02027232 0.3148279 -46.14856862 0.32187873 -42.27685547 0.33325195 C-38.53563215 0.34417223 -34.79443017 0.35010859 -31.05319214 0.35268974 C-29.63076441 0.35452759 -28.20833776 0.35811627 -26.78591919 0.36354256 C-17.99302176 0.39573097 -8.62304333 -1.33717173 0 0 Z " fill="#F56F3D" transform="translate(253.90234375,242.7421875)"/>
<path d="M0 0 C6.04265914 5.00255879 11.56098043 10.43177324 17.08984375 15.9921875 C18.04368954 16.94790248 18.99775941 17.90339388 19.95204163 18.8586731 C22.44153194 21.35194916 24.92800224 23.84821525 27.41381836 26.34515381 C29.95957994 28.90121509 32.50823777 31.45438505 35.05664062 34.0078125 C40.04057069 39.00241019 45.02131048 44.00017799 50 49 C49.01 49.33 48.02 49.66 47 50 C46.59545593 49.59323532 46.19091187 49.18647064 45.77410889 48.76737976 C41.55931327 44.53044341 37.34098816 40.29704481 33.12060547 36.06567383 C31.54645641 34.48649917 29.97320647 32.90642772 28.40087891 31.32543945 C26.13941009 29.05182756 23.87471693 26.78147083 21.609375 24.51171875 C20.90818542 23.80536789 20.20699585 23.09901703 19.48455811 22.3712616 C18.82417542 21.71080338 18.16379272 21.05034515 17.48339844 20.36987305 C16.90603943 19.79029343 16.32868042 19.21071381 15.73382568 18.61357117 C13.98849598 16.92004108 13.98849598 16.92004108 11.7822876 15.41438293 C11.19413269 14.94763657 10.60597778 14.4808902 10 14 C10 13.34 10 12.68 10 12 C9.40703125 11.74089844 8.8140625 11.48179687 8.203125 11.21484375 C5.84141859 9.91255529 4.49113554 8.60701522 2.75 6.5625 C2.22921875 5.96566406 1.7084375 5.36882812 1.171875 4.75390625 C0 3 0 3 0 0 Z " fill="#F87D49" transform="translate(104,223)"/>
<path d="M0 0 C2.49388574 4.98777148 1.88836125 6.66983248 1 12 C-3.87661236 13.26691373 -8.68747726 13.15087812 -13.6875 13.125 C-14.57856445 13.12306641 -15.46962891 13.12113281 -16.38769531 13.11914062 C-22.31800728 13.08011115 -28.11591754 12.78454433 -34 12 C-34 12.66 -34 13.32 -34 14 C-33.34 14.33 -32.68 14.66 -32 15 C-32.495 15.9590625 -32.495 15.9590625 -33 16.9375 C-34.07271225 18.76794567 -34.07271225 18.76794567 -34 20 C-32.90010742 19.98952637 -31.80021484 19.97905273 -30.66699219 19.96826172 C-26.58190166 19.93203094 -22.49682532 19.90908831 -18.41162109 19.89013672 C-16.64434418 19.88008616 -14.87708387 19.86644358 -13.10986328 19.84912109 C-10.56799215 19.82483115 -8.02634111 19.81350745 -5.484375 19.8046875 C-4.30134796 19.78920364 -4.30134796 19.78920364 -3.09442139 19.77340698 C1.08114363 19.77255513 3.16869816 20.08434908 7 22 C-7.52 22 -22.04 22 -37 22 C-37 18.37 -37 14.74 -37 11 C-24.79 11 -12.58 11 0 11 C0 7.37 0 3.74 0 0 Z " fill="#F98C51" transform="translate(199,332)"/>
<path d="M0 0 C1.32 0.66 2.64 1.32 4 2 C3.51322375 2.40847577 3.02644751 2.81695154 2.52492046 3.23780537 C0.65282743 5.40119184 0.61881446 6.37087231 0.60127258 9.19511414 C0.58873444 10.04906769 0.57619629 10.90302124 0.5632782 11.78285217 C0.56471329 12.71649094 0.56614838 13.6501297 0.56762695 14.61206055 C0.55233948 16.09038361 0.55233948 16.09038361 0.53674316 17.59857178 C0.50651043 20.86134449 0.49733142 24.12382412 0.48828125 27.38671875 C0.47144221 29.64688602 0.45329303 31.90704389 0.43388367 34.16719055 C0.38629355 40.12001607 0.35654242 46.07280346 0.33044434 52.02575684 C0.30068429 58.09862808 0.25413835 64.17136778 0.20898438 70.24414062 C0.1228487 82.16269174 0.05554906 94.08126985 0 106 C-0.33 106 -0.66 106 -1 106 C-1.13195027 95.67123226 -1.26243363 85.34244706 -1.39115143 75.0136385 C-1.45099322 70.21521932 -1.51130086 65.41680703 -1.57275391 60.6184082 C-1.6322752 55.9694018 -1.69046743 51.32038033 -1.74781799 46.67134666 C-1.76968582 44.9163576 -1.79199646 43.16137397 -1.81480408 41.40639687 C-1.87885102 36.46547739 -1.93237037 31.52462664 -1.97427368 26.58346939 C-1.99234726 24.76849805 -2.01512292 22.95357039 -2.04135132 21.13869858 C-2.0830356 18.23856879 -2.11187013 15.33853338 -2.13867188 12.43823242 C-2.1546064 11.53895932 -2.17054092 10.63968622 -2.18695831 9.71316242 C-2.19225304 8.87854072 -2.19754776 8.04391901 -2.20300293 7.18400574 C-2.21208427 6.44715137 -2.22116562 5.71029699 -2.23052216 4.9511137 C-2 3 -2 3 0 0 Z " fill="#F46430" transform="translate(134,108)"/>
<path d="M0 0 C18.81 0 37.62 0 57 0 C55.68 1.32 54.36 2.64 53 4 C49.125 3.75 49.125 3.75 46.7421875 3.359375 C43.5456824 2.9404598 40.47310198 2.95692959 37.25 3 C31.32684002 3.05788104 25.53660398 2.7095745 19.64453125 2.12109375 C16.89208064 1.8363666 16.89208064 1.8363666 14 3 C11.98257505 3.14390411 9.95983585 3.22051272 7.9375 3.25 C6.34228516 3.28867187 6.34228516 3.28867187 4.71484375 3.328125 C3.81894531 3.21984375 2.92304688 3.1115625 2 3 C1.34 2.01 0.68 1.02 0 0 Z " fill="#F88A58" transform="translate(149,366)"/>
<path d="M0 0 C1.98983228 3.97966457 2.22400716 4.67675132 1.625 8.75 C1.51414063 9.54921875 1.40328125 10.3484375 1.2890625 11.171875 C1.14597656 12.07679688 1.14597656 12.07679688 1 13 C-0.32 13 -1.64 13 -3 13 C-3.33 13.66 -3.66 14.32 -4 15 C-4 14.34 -4 13.68 -4 13 C-4.64026123 13.03552979 -5.28052246 13.07105957 -5.94018555 13.10766602 C-8.85564635 13.26577928 -11.77152272 13.41422997 -14.6875 13.5625 C-15.69490234 13.61857422 -16.70230469 13.67464844 -17.74023438 13.73242188 C-19.20493164 13.80493164 -19.20493164 13.80493164 -20.69921875 13.87890625 C-21.59471436 13.9260376 -22.49020996 13.97316895 -23.4128418 14.02172852 C-26.06823177 13.99942695 -28.41958599 13.60392668 -31 13 C-31 13.66 -31 14.32 -31 15 C-33.64 15 -36.28 15 -39 15 C-39.33 15.99 -39.66 16.98 -40 18 C-39.67 18.66 -39.34 19.32 -39 20 C-22.665 20.495 -22.665 20.495 -6 21 C-6 21.33 -6 21.66 -6 22 C-17.88 22 -29.76 22 -42 22 C-42 18.7 -42 15.4 -42 12 C-28.14 12 -14.28 12 0 12 C0 8.04 0 4.08 0 0 Z " fill="#F88346" transform="translate(205,310)"/>
<path d="M0 0 C0.66 0 1.32 0 2 0 C1.41618094 3.30324079 0.4336284 4.9414257 -1.92749023 7.29980469 C-2.54160263 7.92014587 -3.15571503 8.54048706 -3.78843689 9.17962646 C-4.45508865 9.83706848 -5.12174042 10.4945105 -5.80859375 11.171875 C-6.49051285 11.8542926 -7.17243195 12.53671021 -7.87501526 13.23980713 C-9.31648701 14.67894002 -10.76164906 16.11438471 -12.21020508 17.54638672 C-14.43423822 19.74677291 -16.64460045 21.96022974 -18.85351562 24.17578125 C-20.25441682 25.57110763 -21.65608365 26.96566582 -23.05859375 28.359375 C-24.05553505 29.35768341 -24.05553505 29.35768341 -25.07261658 30.37615967 C-25.68988113 30.98389221 -26.30714569 31.59162476 -26.94311523 32.21777344 C-27.48636948 32.75642029 -28.02962372 33.29506714 -28.58934021 33.85003662 C-30 35 -30 35 -32 35 C-30.61245193 30.4589336 -28.69004258 28.87003312 -25 26 C-23.81134892 24.68622776 -22.6462001 23.35096788 -21.5 22 C-18.87961756 18.92587168 -16.1737954 16.50562795 -13 14 C-11.79057348 12.53595737 -10.58196228 11.07099725 -9.3984375 9.5859375 C-7.30896542 7.21631273 -4.90502878 5.27971892 -2.453125 3.296875 C-0.86712389 2.04219297 -0.86712389 2.04219297 0 0 Z " fill="#F96B35" transform="translate(266,84)"/>
<path d="M0 0 C0.99 0.33 1.98 0.66 3 1 C3 1.66 3 2.32 3 3 C1.65429688 4.32446289 1.65429688 4.32446289 -0.28125 5.91015625 C-5.99910626 10.77209884 -11.22059763 16.11246679 -16.5 21.4375 C-17.52320139 22.4657298 -18.54663733 23.49372626 -19.5703125 24.52148438 C-22.04957999 27.01164338 -24.52567538 29.50492833 -27 32 C-27.66 31.67 -28.32 31.34 -29 31 C-28.236875 30.278125 -27.47375 29.55625 -26.6875 28.8125 C-24.01077352 26.2331992 -24.01077352 26.2331992 -22.63745117 23.6418457 C-20.76893912 20.62720892 -18.63552874 18.40964354 -16.11328125 15.91796875 C-15.65140915 15.45892654 -15.18953705 14.99988434 -14.71366882 14.52693176 C-13.25127862 13.07565086 -11.78205874 11.63151796 -10.3125 10.1875 C-9.31399177 9.19903354 -8.31594011 8.21010563 -7.31835938 7.22070312 C-4.88335692 4.80922726 -2.4438041 2.40255043 0 0 Z " fill="#F86D36" transform="translate(288,108)"/>
<path d="M0 0 C0.99 0.33 1.98 0.66 3 1 C2.34 1.33 1.68 1.66 1 2 C0.81630859 2.87011719 0.81630859 2.87011719 0.62890625 3.7578125 C-0.76859075 8.74019312 -5.46532695 12.39168793 -9 16 C-9.598125 16.66644531 -10.19625 17.33289063 -10.8125 18.01953125 C-14.04061896 21.09633214 -16.59786195 22.13905473 -21.0234375 22.20703125 C-25.08312274 22.08275056 -29.00640021 21.75262187 -33 21 C-33.33 20.34 -33.66 19.68 -34 19 C-32.25976562 19.11794922 -32.25976562 19.11794922 -30.484375 19.23828125 C-20.68043067 19.61985211 -20.68043067 19.61985211 -12.2734375 15.21484375 C-9.20349927 12.04181058 -6.57856175 8.57497161 -4 5 C-2.67267046 3.32854798 -1.34168779 1.65994862 0 0 Z " fill="#FA763E" transform="translate(245,347)"/>
<path d="M0 0 C0.66 0 1.32 0 2 0 C2.16800441 6.65673724 2.32793562 13.31363286 2.48217773 19.97070312 C2.53564249 22.23669863 2.59097521 24.50265085 2.64819336 26.76855469 C2.7299795 30.02008731 2.80511006 33.27171497 2.87890625 36.5234375 C2.90594131 37.54118256 2.93297638 38.55892761 2.96083069 39.60751343 C2.98092697 40.54833771 3.00102325 41.48916199 3.02172852 42.45849609 C3.04171402 43.28900482 3.06169952 44.11951355 3.08229065 44.97518921 C3 47 3 47 2 49 C1.34 49 0.68 49 0 49 C0 32.83 0 16.66 0 0 Z " fill="#F7A888" transform="translate(47,304)"/>
<path d="M0 0 C5.94 0 11.88 0 18 0 C18 4 18 4 16.06640625 6.2890625 C15.24011719 7.05992187 14.41382813 7.83078125 13.5625 8.625 C10.35661566 11.49481029 10.35661566 11.49481029 8 15 C7.34 15 6.68 15 6 15 C6 15.66 6 16.32 6 17 C5.34 17.33 4.68 17.66 4 18 C3.62875 18.70125 3.2575 19.4025 2.875 20.125 C0.23503081 24.17295276 -3.29309309 26.94466343 -7 30 C-7.33 29.34 -7.66 28.68 -8 28 C-2.98098788 22.08050032 2.34162459 16.56297238 7.875 11.125 C9.39550816 9.62991839 10.91385411 8.13263356 12.4296875 6.6328125 C13.09210449 5.98199707 13.75452148 5.33118164 14.43701172 4.66064453 C16.08544452 3.06857485 16.08544452 3.06857485 17 1 C11.39 1 5.78 1 0 1 C0 0.67 0 0.34 0 0 Z " fill="#F87E47" transform="translate(264,309)"/>
<path d="M0 0 C2.91753534 1.3163717 4.91927067 2.7597735 7.1875 5 C10.63527071 8.07382595 13.66975911 8.96489423 18.1796875 9.67578125 C20 10 20 10 21 11 C22.02354874 17.96265875 22.13711613 24.97660718 22 32 C20.515 32.495 20.515 32.495 19 33 C18.67 26.07 18.34 19.14 18 12 C15.69 11.67 13.38 11.34 11 11 C7.5106253 9.71932524 5.63895831 7.75014109 3.25 4.9375 C2.63640625 4.22464844 2.0228125 3.51179688 1.390625 2.77734375 C0 1 0 1 0 0 Z " fill="#FCCAB5" transform="translate(360,278)"/>
<path d="M0 0 C3.87493616 -0.05834395 7.74975836 -0.09371201 11.625 -0.125 C13.26662109 -0.15013672 13.26662109 -0.15013672 14.94140625 -0.17578125 C24.98079979 -0.23662606 24.98079979 -0.23662606 30 2 C29.67 2.99 29.34 3.98 29 5 C29 4.34 29 3.68 29 3 C28.18273437 3.16371094 27.36546875 3.32742187 26.5234375 3.49609375 C22.51231824 4.06974606 18.66751879 4.11001604 14.625 4.0625 C13.88894531 4.05798828 13.15289062 4.05347656 12.39453125 4.04882812 C10.59631842 4.03715142 8.79814803 4.01922011 7 4 C6.67 3.01 6.34 2.02 6 1 C4.02 1 2.04 1 0 1 C0 0.67 0 0.34 0 0 Z " fill="#FBB194" transform="translate(283,31)"/>
<path d="M0 0 C0.66 0.33 1.32 0.66 2 1 C2 14 2 14 1 19 C1 19.99 1 20.98 1 22 C0.34 22 -0.32 22 -1 22 C-0.835 23.03125 -0.67 24.0625 -0.5 25.125 C-0.06678152 28.48244326 0.08235703 31.62336157 0 35 C-0.66 34.67 -1.32 34.34 -2 34 C-2 24.43 -2 14.86 -2 5 C-1.67 5 -1.34 5 -1 5 C-0.67 3.35 -0.34 1.7 0 0 Z " fill="#FBCEBA" transform="translate(48,362)"/>
<path d="M0 0 C0 0.33 0 0.66 0 1 C-18.15 1 -36.3 1 -55 1 C-55 0.67 -55 0.34 -55 0 C-43.28168857 -0.58920635 -31.58613586 -1.16546589 -19.85009766 -0.96289062 C-16.56112218 -0.92190651 -13.50573219 -1.0735487 -10.24609375 -1.55859375 C-6.09849414 -2.12258744 -3.88725937 -1.34864101 0 0 Z " fill="#F57B47" transform="translate(204,309)"/>
<path d="M0 0 C0 0.66 0 1.32 0 2 C1.98 2.66 3.96 3.32 6 4 C6 4.99 6 5.98 6 7 C6.99 7.33 7.98 7.66 9 8 C9.33 9.65 9.66 11.3 10 13 C6.87616916 11.7985266 5.70582456 10.64698947 3.5 8 C-0.63978254 3.60282166 -6.26026698 3.53868044 -12 3 C-8.06769671 0.37846447 -4.67664739 0 0 0 Z " fill="#F6885D" transform="translate(85,306)"/>
<path d="M0 0 C3.0831351 1.19899698 6.06279492 2.47700477 9 4 C9 4.66 9 5.32 9 6 C9.66 6 10.32 6 11 6 C12.625 7.375 12.625 7.375 14 9 C14 9.66 14 10.32 14 11 C14.66 11 15.32 11 16 11 C16.66 12.98 17.32 14.96 18 17 C11.79646558 16.3107184 8.13092225 10.0622863 4.4296875 5.55078125 C2.88518193 3.75318225 2.88518193 3.75318225 0 2 C0 1.34 0 0.68 0 0 Z " fill="#F87745" transform="translate(270,53)"/>
<path d="M0 0 C0.66 0 1.32 0 2 0 C2 6.93 2 13.86 2 21 C1.67 21 1.34 21 1 21 C0.67 24.63 0.34 28.26 0 32 C-0.33 32 -0.66 32 -1 32 C-1.02465504 27.60343827 -1.04283842 23.2069128 -1.05493164 18.81030273 C-1.05997121 17.31355082 -1.06680287 15.81680384 -1.07543945 14.32006836 C-1.08752159 12.17300193 -1.09323191 10.02600038 -1.09765625 7.87890625 C-1.10289307 6.5854126 -1.10812988 5.29191895 -1.11352539 3.95922852 C-1 1 -1 1 0 0 Z " fill="#FAB59D" transform="translate(380,310)"/>
<path d="M0 0 C0 4.44071752 -2.89285572 6.46249234 -5.8125 9.5 C-6.63331055 10.37205078 -6.63331055 10.37205078 -7.47070312 11.26171875 C-8.97082887 12.85094287 -10.47817958 14.43154855 -12 16 C-12.51393311 16.55751953 -13.02786621 17.11503906 -13.55737305 17.68945312 C-15 19 -15 19 -17 19 C-17.33 18.01 -17.66 17.02 -18 16 C-12.25 11 -12.25 11 -10 11 C-9.34 9.35 -8.68 7.7 -8 6 C-7.34 6 -6.68 6 -6 6 C-5.62875 5.071875 -5.62875 5.071875 -5.25 4.125 C-3.79371361 1.64931313 -2.62187494 1.04874998 0 0 Z " fill="#F6723A" transform="translate(262,310)"/>
<path d="M0 0 C0.66 0.33 1.32 0.66 2 1 C1.360625 1.5775 0.72125 2.155 0.0625 2.75 C-2.10124142 4.74114267 -2.10124142 4.74114267 -2.4375 6.875 C-3.33435463 10.26311749 -5.72841296 12.39598558 -8 15 C-8.99 16.485 -8.99 16.485 -10 18 C-10.33 17.67 -10.66 17.34 -11 17 C-11.33 19.64 -11.66 22.28 -12 25 C-12.33 25 -12.66 25 -13 25 C-13.54778569 18.42657177 -13.0148232 13.38471039 -9 8 C-6.1484392 5.13862315 -3.14800403 2.52916563 0 0 Z " fill="#F87F53" transform="translate(113,90)"/>
<path d="M0 0 C0 0.66 0 1.32 0 2 C-1.30324219 2.16435547 -1.30324219 2.16435547 -2.6328125 2.33203125 C-13.48362563 3.70659597 -13.48362563 3.70659597 -21.875 10.1875 C-22.57625 11.115625 -23.2775 12.04375 -24 13 C-24.66 12.34 -25.32 11.68 -26 11 C-25.04996458 7.57987249 -24.13625109 6.11354257 -21.375 3.8125 C-14.29328088 0.00935455 -7.86876944 -0.2902415 0 0 Z " fill="#F67745" transform="translate(311,307)"/>
<path d="M0 0 C0.99 0.33 1.98 0.66 3 1 C1.54782324 2.50596108 0.08807139 4.00462104 -1.375 5.5 C-2.18710938 6.3353125 -2.99921875 7.170625 -3.8359375 8.03125 C-6 10 -6 10 -8 10 C-7.34 11.32 -6.68 12.64 -6 14 C-3.03 14 -0.06 14 3 14 C2.67 14.66 2.34 15.32 2 16 C0.41820385 16.10867302 -1.16577153 16.18589827 -2.75 16.25 C-3.63171875 16.29640625 -4.5134375 16.3428125 -5.421875 16.390625 C-8 16 -8 16 -12 12 C-8.04 8.04 -4.08 4.08 0 0 Z " fill="#F55E26" transform="translate(168,229)"/>
<path d="M0 0 C0.66 0 1.32 0 2 0 C2 0.66 2 1.32 2 2 C2.66 2.33 3.32 2.66 4 3 C3.67 3.639375 3.34 4.27875 3 4.9375 C1.92728775 6.76794567 1.92728775 6.76794567 2 8 C3.09989258 7.98952637 4.19978516 7.97905273 5.33300781 7.96826172 C9.41809834 7.93203094 13.50317468 7.90908831 17.58837891 7.89013672 C19.35565582 7.88008616 21.12291613 7.86644358 22.89013672 7.84912109 C25.43200785 7.82483115 27.97365889 7.81350745 30.515625 7.8046875 C31.69865204 7.78920364 31.69865204 7.78920364 32.90557861 7.77340698 C37.08114363 7.77255513 39.16869816 8.08434908 43 10 C28.81 10 14.62 10 0 10 C0 6.7 0 3.4 0 0 Z " fill="#F8864A" transform="translate(163,344)"/>
<path d="M0 0 C0.33 0 0.66 0 1 0 C1 18.15 1 36.3 1 55 C0.67 55 0.34 55 0 55 C-0.06058594 53.73542969 -0.12117187 52.47085938 -0.18359375 51.16796875 C-0.26800904 49.50780129 -0.35265655 47.84764563 -0.4375 46.1875 C-0.47681641 45.35412109 -0.51613281 44.52074219 -0.55664062 43.66210938 C-0.59853516 42.85966797 -0.64042969 42.05722656 -0.68359375 41.23046875 C-0.73858032 40.12288208 -0.73858032 40.12288208 -0.79467773 38.99291992 C-0.94842141 36.792505 -0.94842141 36.792505 -2 34 C-1.505 33.505 -1.505 33.505 -1 33 C-0.84019563 30.55391002 -0.74070553 28.13268942 -0.68359375 25.68359375 C-0.6524221 24.58701195 -0.6524221 24.58701195 -0.62062073 23.46827698 C-0.55504976 21.12478344 -0.49620568 18.78117461 -0.4375 16.4375 C-0.39432192 14.85220145 -0.35070787 13.26691471 -0.30664062 11.68164062 C-0.1993608 7.78787963 -0.0981151 3.89400228 0 0 Z " fill="#F88248" transform="translate(148,310)"/>
<path d="M0 0 C3.14979612 4.72469418 4.15975592 9.1148801 3.6875 14.6875 C3.460625 15.780625 3.23375 16.87375 3 18 C2.855625 18.928125 2.71125 19.85625 2.5625 20.8125 C2 23 2 23 0 25 C-1.01241685 26.32392972 -2.01439389 27.65599167 -3 29 C-2.24442379 22.45167286 -2.24442379 22.45167286 -0.97265625 20.1015625 C1.62421557 14.49065069 0.0819224 6.87329303 -1 1 C-0.67 0.67 -0.34 0.34 0 0 Z " fill="#FED0B9" transform="translate(67,228)"/>
<path d="M0 0 C0.66 0 1.32 0 2 0 C2 12.54 2 25.08 2 38 C1.34 37.67 0.68 37.34 0 37 C0.01740234 35.1128125 0.01740234 35.1128125 0.03515625 33.1875 C0.09579846 23.37405039 -0.08880854 13.67808684 -0.87890625 3.89453125 C-0.91886719 2.93933594 -0.95882812 1.98414063 -1 1 C-0.67 0.67 -0.34 0.34 0 0 Z " fill="#F77A41" transform="translate(122,310)"/>
<path d="M0 0 C0.66 0.33 1.32 0.66 2 1 C2 10.24 2 19.48 2 29 C1.34 29 0.68 29 0 29 C-1.19811024 19.32953878 -1.75101088 9.63055982 0 0 Z " fill="#FEC8B3" transform="translate(59,157)"/>
<path d="M0 0 C0 6.09675464 -5.15537792 10.38406317 -9.21875 14.484375 C-11.07471724 16.06357519 -12.78719492 16.99572692 -15 18 C-16.11375 18.556875 -16.11375 18.556875 -17.25 19.125 C-17.8275 19.41375 -18.405 19.7025 -19 20 C-13.17371096 12.84198775 -6.5617015 6.47408234 0 0 Z " fill="#FCBC7C" transform="translate(126,82)"/>
<path d="M0 0 C0.99 0.99 1.98 1.98 3 3 C2.34 3 1.68 3 1 3 C1.16371094 3.99515625 1.32742187 4.9903125 1.49609375 6.015625 C2.05636224 9.94046878 2.09834007 13.78369847 2.0625 17.75 C2.05347656 19.04421875 2.04445313 20.3384375 2.03515625 21.671875 C2.02355469 22.77015625 2.01195313 23.8684375 2 25 C2 27.62834278 2.19789762 30.08186701 2.5 32.6875 C2.5928125 33.49574219 2.685625 34.30398438 2.78125 35.13671875 C2.8534375 35.75160156 2.925625 36.36648438 3 37 C2.01 37.66 1.02 38.32 0 39 C0 26.13 0 13.26 0 0 Z " fill="#F97741" transform="translate(84,328)"/>
<path d="M0 0 C12.54 0 25.08 0 38 0 C37.01 0.99 36.02 1.98 35 3 C32.92184939 2.82965979 30.84300551 2.63549028 28.78125 2.32421875 C25.55675414 1.94832949 22.43319902 1.96050587 19.1875 2 C12.73818366 2.05614204 6.41283733 1.65772691 0 1 C0 0.67 0 0.34 0 0 Z " fill="#F47B4D" transform="translate(167,367)"/>
<path d="M0 0 C7.92 0 15.84 0 24 0 C24 0.99 24 1.98 24 3 C19.38 3 14.76 3 10 3 C10 2.34 10 1.68 10 1 C8.72125 1.20625 7.4425 1.4125 6.125 1.625 C3.9453125 1.9765625 3.9453125 1.9765625 2 2 C1.34 1.34 0.68 0.68 0 0 Z " fill="#FBA685" transform="translate(137,31)"/>
<path d="M0 0 C0.66 0.66 1.32 1.32 2 2 C-0.11629674 4.34135898 -2.24441629 6.67164059 -4.375 9 C-4.97828125 9.66773438 -5.5815625 10.33546875 -6.203125 11.0234375 C-6.78320312 11.65507812 -7.36328125 12.28671875 -7.9609375 12.9375 C-8.76217041 13.81728516 -8.76217041 13.81728516 -9.57958984 14.71484375 C-11 16 -11 16 -13 16 C-11.54150642 12.83030356 -9.76054587 10.19319346 -7.625 7.4375 C-7.03976563 6.67308594 -6.45453125 5.90867187 -5.8515625 5.12109375 C-4.05115395 3.05860042 -2.24727178 1.54933054 0 0 Z " fill="#F86F39" transform="translate(232,340)"/>
<path d="M0 0 C0.99 0.33 1.98 0.66 3 1 C3 1.66 3 2.32 3 3 C1.390625 4.5859375 1.390625 4.5859375 -0.75 6.375 C-3.06903702 8.33757727 -5.25219284 10.2588295 -7.375 12.4375 C-9 14 -9 14 -11 14 C-10.52590352 9.68269587 -7.96603297 7.66352539 -4.9375 4.75 C-4.01839844 3.85796875 -3.09929687 2.9659375 -2.15234375 2.046875 C-1.44207031 1.37140625 -0.73179687 0.6959375 0 0 Z " fill="#F86023" transform="translate(288,108)"/>
<path d="M0 0 C0.66 0 1.32 0 2 0 C2.2475 0.61875 2.495 1.2375 2.75 1.875 C3.80249898 4.12347802 3.80249898 4.12347802 5.875 4.875 C8.97661854 6.51703335 10.14887041 9.07402097 12 12 C13.62351109 13.79394446 13.62351109 13.79394446 15 15 C14.67 15.99 14.34 16.98 14 18 C11.65041409 15.76646507 9.32346594 13.51066957 7 11.25 C6.33226562 10.61578125 5.66453125 9.9815625 4.9765625 9.328125 C4.34492188 8.709375 3.71328125 8.090625 3.0625 7.453125 C2.47597656 6.88754883 1.88945312 6.32197266 1.28515625 5.73925781 C0 4 0 4 0 0 Z " fill="#F87647" transform="translate(302,82)"/>
<path d="M0 0 C0.92876953 -0.00257812 1.85753906 -0.00515625 2.81445312 -0.0078125 C3.78189453 -0.00007813 4.74933594 0.00765625 5.74609375 0.015625 C6.71740234 0.00789063 7.68871094 0.00015625 8.68945312 -0.0078125 C9.61693359 -0.00523438 10.54441406 -0.00265625 11.5 0 C12.35021729 0.00225586 13.20043457 0.00451172 14.07641602 0.00683594 C16.18359375 0.265625 16.18359375 0.265625 18.18359375 2.265625 C16.92546875 2.45125 15.66734375 2.636875 14.37109375 2.828125 C13.30955078 2.98474609 13.30955078 2.98474609 12.2265625 3.14453125 C10.18359375 3.265625 10.18359375 3.265625 7.18359375 2.265625 C5.37486999 2.12203166 3.56026798 2.04516379 1.74609375 2.015625 C0.79863281 1.98984375 -0.14882812 1.9640625 -1.125 1.9375 C-4.20668965 2.31320672 -5.5361318 3.2171515 -7.81640625 5.265625 C-7.81640625 4.275625 -7.81640625 3.285625 -7.81640625 2.265625 C-4.60049575 0.12168466 -3.70609691 0.00982026 0 0 Z " fill="#F86328" transform="translate(164.81640625,81.734375)"/>
<path d="M0 0 C0.33 0 0.66 0 1 0 C1.88563089 3.79074537 2.11681301 7.28695898 2.09765625 11.17578125 C2.09282227 12.91118164 2.09282227 12.91118164 2.08789062 14.68164062 C2.07951172 15.87982422 2.07113281 17.07800781 2.0625 18.3125 C2.05798828 19.53001953 2.05347656 20.74753906 2.04882812 22.00195312 C2.03706578 25.00135226 2.02062826 28.00065089 2 31 C1.67 31 1.34 31 1 31 C0.67 24.4 0.34 17.8 0 11 C-0.33 11 -0.66 11 -1 11 C-2.0257259 6.58937864 -2.03684712 4.07369424 0 0 Z " fill="#FA9B63" transform="translate(69,312)"/>
<path d="M0 0 C0.33 0 0.66 0 1 0 C1.02893932 3.62498334 1.04677792 7.24993713 1.0625 10.875 C1.07087891 11.90753906 1.07925781 12.94007813 1.08789062 14.00390625 C1.09111328 14.99003906 1.09433594 15.97617187 1.09765625 16.9921875 C1.10289307 17.90339355 1.10812988 18.81459961 1.11352539 19.75341797 C1 22 1 22 0 24 C-1.65 23.67 -3.3 23.34 -5 23 C-4.67 22.34 -4.34 21.68 -4 21 C-2.68 21 -1.36 21 0 21 C-0.165 19.741875 -0.33 18.48375 -0.5 17.1875 C-1.09827745 11.81154978 -1.32807498 6.40358788 -1 1 C-0.67 0.67 -0.34 0.34 0 0 Z " fill="#FDD9CC" transform="translate(381,373)"/>
<path d="M0 0 C0.66 0.66 1.32 1.32 2 2 C-1.06374081 5.09992672 -2.52746162 5.97105002 -6.953125 6.2421875 C-8.38714246 6.14201716 -9.81972454 6.01905652 -11.25 5.875 C-11.9821875 5.82601563 -12.714375 5.77703125 -13.46875 5.7265625 C-15.3221958 5.57554099 -17.16437226 5.2975561 -19 5 C-19.33 4.34 -19.66 3.68 -20 3 C-18.72382813 2.95101563 -17.44765625 2.90203125 -16.1328125 2.8515625 C-14.46351928 2.77653809 -12.79424954 2.70099012 -11.125 2.625 C-10.28324219 2.5940625 -9.44148437 2.563125 -8.57421875 2.53125 C-7.76855469 2.49257813 -6.96289062 2.45390625 -6.1328125 2.4140625 C-5.38918457 2.3826416 -4.64555664 2.3512207 -3.87939453 2.31884766 C-1.75989026 2.14580449 -1.75989026 2.14580449 0 0 Z " fill="#F98D5E" transform="translate(231,363)"/>
<path d="M0 0 C2.99001613 0.32324499 4.56420205 0.54806138 6.6875 2.75 C8.71234921 6.22117008 10 8.9465152 10 13 C8.32438946 11.40517782 6.65974066 9.79883156 5 8.1875 C3.6078125 6.84751953 3.6078125 6.84751953 2.1875 5.48046875 C0 3 0 3 0 0 Z " fill="#F86E36" transform="translate(102,325)"/>
<path d="M0 0 C0 3 0 3 -1.79296875 5.19140625 C-2.58316406 5.97386719 -3.37335938 6.75632813 -4.1875 7.5625 C-4.96480469 8.34753906 -5.74210938 9.13257813 -6.54296875 9.94140625 C-8.98212714 11.98502544 -10.99742699 13.01336411 -14 14 C-5.12418301 1.708061 -5.12418301 1.708061 0 0 Z " fill="#F67139" transform="translate(183,215)"/>
<path d="M0 0 C0.66 0 1.32 0 2 0 C1.46348047 4.03314682 -0.54201208 5.94451681 -3.375 8.75 C-4.16648437 9.54921875 -4.95796875 10.3484375 -5.7734375 11.171875 C-8 13 -8 13 -11 13 C-9.56177525 9.58139248 -7.78464276 7.72092162 -4.9375 5.375 C-2.02124288 3.04514448 -2.02124288 3.04514448 0 0 Z " fill="#FB6525" transform="translate(266,84)"/>
<path d="M0 0 C3.68890725 0.45338525 7.38755996 0.33510617 11.09765625 0.2578125 C11.09765625 0.9178125 11.09765625 1.5778125 11.09765625 2.2578125 C7.68106134 2.31597873 4.2645942 2.35146445 0.84765625 2.3828125 C-0.60447266 2.40794922 -0.60447266 2.40794922 -2.0859375 2.43359375 C-3.48779297 2.44326172 -3.48779297 2.44326172 -4.91796875 2.453125 C-5.77680664 2.46359863 -6.63564453 2.47407227 -7.52050781 2.48486328 C-10.08137971 2.24074573 -11.69745404 1.54771762 -13.90234375 0.2578125 C-8.98175804 -0.53299592 -4.97265687 -0.77110782 0 0 Z " fill="#F4602A" transform="translate(253.90234375,242.7421875)"/>
<path d="M0 0 C0.33 0 0.66 0 1 0 C1.25470125 3.60284066 1.47435483 7.20698109 1.6875 10.8125 C1.76033203 11.83666016 1.83316406 12.86082031 1.90820312 13.91601562 C1.96298828 14.89892578 2.01777344 15.88183594 2.07421875 16.89453125 C2.13182373 17.80050049 2.18942871 18.70646973 2.2487793 19.63989258 C2 22 2 22 0.49536133 23.8190918 C0.00189209 24.2087915 -0.49157715 24.59849121 -1 25 C-1.99 24.67 -2.98 24.34 -4 24 C-4 23.34 -4 22.68 -4 22 C-2.35 21.67 -0.7 21.34 1 21 C0.835 20.13375 0.67 19.2675 0.5 18.375 C-0.39266231 12.30238178 -0.07639812 6.12033868 0 0 Z " fill="#F65F23" transform="translate(291,194)"/>
<path d="M0 0 C3.79549259 0.54581199 5.30979295 2.05409295 7.75 4.9375 C8.67039063 6.00291016 8.67039063 6.00291016 9.609375 7.08984375 C11 9 11 9 11 11 C7.78087698 10.4204182 6.10207467 9.51238945 3.8125 7.1875 C3.30332031 6.68605469 2.79414063 6.18460938 2.26953125 5.66796875 C0.84335779 3.79419623 0.41389343 2.29885388 0 0 Z " fill="#F77037" transform="translate(201,129)"/>
<path d="M0 0 C0.99 0.495 0.99 0.495 2 1 C1.979375 1.9075 1.95875 2.815 1.9375 3.75 C1.84550224 6.79881586 1.84550224 6.79881586 2.5625 8.8125 C3.16222835 11.81114176 2.61605155 14.25430925 2.0625 17.25 C1.86785156 18.32765625 1.67320313 19.4053125 1.47265625 20.515625 C1.31667969 21.33546875 1.16070312 22.1553125 1 23 C0.67 23 0.34 23 0 23 C0 15.41 0 7.82 0 0 Z " fill="#FCB59A" transform="translate(46,290)"/>
<path d="M0 0 C0.33 1.32 0.66 2.64 1 4 C0.67 3.34 0.34 2.68 0 2 C-0.886875 2.165 -1.77375 2.33 -2.6875 2.5 C-5.53596892 2.92995757 -8.13004802 3.08441035 -11 3 C-11.33 2.01 -11.66 1.02 -12 0 C-7.91556885 -1.53166168 -4.20544343 -0.63081652 0 0 Z " fill="#FBC0A5" transform="translate(312,32)"/>
<path d="M0 0 C0.99 0 1.98 0 3 0 C1.55218207 3.44428265 -0.27694609 5.36130962 -3.125 7.75 C-4.21167969 8.67039062 -4.21167969 8.67039062 -5.3203125 9.609375 C-5.87460937 10.06828125 -6.42890625 10.5271875 -7 11 C-7.33 10.34 -7.66 9.68 -8 9 C-6.85459775 7.68712379 -5.70866567 6.37470979 -4.5625 5.0625 C-3.92441406 4.33160156 -3.28632813 3.60070312 -2.62890625 2.84765625 C-1.77458541 1.87860647 -0.91348825 0.91348825 0 0 Z " fill="#FA7136" transform="translate(264,328)"/>
<path d="M0 0 C1.65 0 3.3 0 5 0 C5 0.99 5 1.98 5 3 C5.99 3.33 6.98 3.66 8 4 C8.33 5.65 8.66 7.3 9 9 C5.18063472 7.44396229 2.73955562 5.04395069 0 2 C0 1.34 0 0.68 0 0 Z " fill="#F7824F" transform="translate(86,310)"/>
<path d="M0 0 C4.62 0 9.24 0 14 0 C13.67 0.99 13.34 1.98 13 3 C9.04 3 5.08 3 1 3 C0.67 2.01 0.34 1.02 0 0 Z " fill="#F68355" transform="translate(123,366)"/>
<path d="M0 0 C0.99 0.66 1.98 1.32 3 2 C0.14285714 9.57142857 0.14285714 9.57142857 -4 12 C-4.66 11.34 -5.32 10.68 -6 10 C-5.195625 9.0925 -4.39125 8.185 -3.5625 7.25 C-1.58857329 4.89690092 -0.36122533 3.13061954 0 0 Z " fill="#F87F4F" transform="translate(322,217)"/>
<path d="M0 0 C1.98 0.99 1.98 0.99 4 2 C4 2.66 4 3.32 4 4 C4.598125 4.268125 5.19625 4.53625 5.8125 4.8125 C7.97224808 5.98493467 9.35790256 7.19369282 11 9 C10.67 9.66 10.34 10.32 10 11 C6.0194435 8.83912647 2.98818899 6.41507313 0 3 C0 2.01 0 1.02 0 0 Z " fill="#F76E37" transform="translate(237,165)"/>
<path d="M0 0 C0 0.99 0 1.98 0 3 C0.66 3.33 1.32 3.66 2 4 C1.34 4 0.68 4 0 4 C-0.33 4.66 -0.66 5.32 -1 6 C-1.70125 5.525625 -2.4025 5.05125 -3.125 4.5625 C-6.16081337 2.91260143 -8.59168786 2.39631536 -12 2 C-12 1.67 -12 1.34 -12 1 C-7.95858806 0.36605303 -4.0934693 -0.12404452 0 0 Z " fill="#F88E5E" transform="translate(348,309)"/>
<path d="M0 0 C-1.39750048 3.15835107 -3.05198234 5.32272825 -5.5 7.75 C-6.41265625 8.67039062 -6.41265625 8.67039062 -7.34375 9.609375 C-9 11 -9 11 -11 11 C-9.60249952 7.84164893 -7.94801766 5.67727175 -5.5 3.25 C-4.8915625 2.63640625 -4.283125 2.0228125 -3.65625 1.390625 C-2 0 -2 0 0 0 Z " fill="#F77340" transform="translate(121,86)"/>
<path d="M0 0 C3.63 0 7.26 0 11 0 C11 0.66 11 1.32 11 2 C8.36 2 5.72 2 3 2 C1.66666667 5 1.66666667 5 3 8 C2.01 8 1.02 8 0 8 C0 5.36 0 2.72 0 0 Z " fill="#F75920" transform="translate(163,323)"/>
<path d="M0 0 C0.66 0 1.32 0 2 0 C2 7.26 2 14.52 2 22 C1.67 22 1.34 22 1 22 C0.93941406 20.73542969 0.87882813 19.47085937 0.81640625 18.16796875 C0.73199096 16.50780129 0.64734345 14.84764563 0.5625 13.1875 C0.52318359 12.35412109 0.48386719 11.52074219 0.44335938 10.66210938 C0.40146484 9.85966797 0.35957031 9.05722656 0.31640625 8.23046875 C0.26141968 7.12288208 0.26141968 7.12288208 0.20532227 5.99291992 C0.05157859 3.792505 0.05157859 3.792505 -1 1 C-0.67 0.67 -0.34 0.34 0 0 Z " fill="#F9753A" transform="translate(147,343)"/>
<path d="M0 0 C3.21524305 1.40844718 5.32183868 3.10344786 7.75 5.625 C8.67039063 6.57246094 8.67039063 6.57246094 9.609375 7.5390625 C10.29773438 8.26222656 10.29773438 8.26222656 11 9 C10.67 9.66 10.34 10.32 10 11 C8.51152084 9.92949782 7.0344805 8.84307756 5.5625 7.75 C4.32693359 6.84507812 4.32693359 6.84507812 3.06640625 5.921875 C0.88728296 3.89516676 0.35298081 2.9008605 0 0 Z " fill="#FA7F46" transform="translate(224,325)"/>
<path d="M0 0 C3.63 0 7.26 0 11 0 C11 0.99 11 1.98 11 3 C8.83032311 3.95465783 7.43671207 4.14401212 5.17578125 3.3984375 C3.4315257 2.64129615 1.71372869 1.82390802 0 1 C0 0.67 0 0.34 0 0 Z " fill="#F89063" transform="translate(72,366)"/>
<path d="M0 0 C0 4.38968456 -2.12805101 5.76905739 -5 9 C-5.33 8.34 -5.66 7.68 -6 7 C-6.66 6.67 -7.32 6.34 -8 6 C-7.34 6 -6.68 6 -6 6 C-5.7525 5.38125 -5.505 4.7625 -5.25 4.125 C-3.79371361 1.64931313 -2.62187494 1.04874998 0 0 Z " fill="#F77F49" transform="translate(262,310)"/>
<path d="M0 0 C1.9375 0.3125 1.9375 0.3125 4 1 C4.33 1.99 4.66 2.98 5 4 C6.49985609 5.66710346 6.49985609 5.66710346 8 7 C7.01 7.33 6.02 7.66 5 8 C2.5 5.6875 2.5 5.6875 0 3 C0 2.01 0 1.02 0 0 Z " fill="#F76B34" transform="translate(263,191)"/>
<path d="M0 0 C2.12438339 -0.08078641 4.2496323 -0.13909141 6.375 -0.1875 C7.55835938 -0.22230469 8.74171875 -0.25710937 9.9609375 -0.29296875 C11.46527344 -0.14794922 11.46527344 -0.14794922 13 0 C13.66 0.99 14.32 1.98 15 3 C10.05 2.67 5.1 2.34 0 2 C0 1.34 0 0.68 0 0 Z " fill="#F77748" transform="translate(250,48)"/>
<path d="M0 0 C0.66 0.33 1.32 0.66 2 1 C-0.625 6.75 -0.625 6.75 -4 9 C-4.33 9.99 -4.66 10.98 -5 12 C-5.66 12 -6.32 12 -7 12 C-5.44298069 7.32894208 -2.91552627 3.91294315 0 0 Z " fill="#FEB39F" transform="translate(105,36)"/>
<path d="M0 0 C1.32 0.66 2.64 1.32 4 2 C-1.75 7 -1.75 7 -4 7 C-2.92598892 4.08482708 -2.22189824 2.22189824 0 0 Z " fill="#F9814D" transform="translate(236,357)"/>
<path d="M0 0 C1 3 1 3 -0.25 6.625 C-2 10 -2 10 -5 11 C-3.77472971 6.94718288 -2.30119506 3.55639236 0 0 Z " fill="#FEB9A6" transform="translate(84,79)"/>
<path d="M0 0 C0.66 0 1.32 0 2 0 C3.7143618 1.95927063 5.38405168 3.95880212 7 6 C4.69 6 2.38 6 0 6 C-1 3 -1 3 0 0 Z " fill="#FEC5BA" transform="translate(47,275)"/>
<path d="M0 0 C3.0831351 1.19899698 6.06279492 2.47700477 9 4 C9 4.66 9 5.32 9 6 C8.01 6.33 7.02 6.66 6 7 C2.8125 4.6875 2.8125 4.6875 0 2 C0 1.34 0 0.68 0 0 Z " fill="#F88052" transform="translate(270,53)"/>
<path d="M0 0 C0.99 0.66 1.98 1.32 3 2 C2.0479279 3.00596297 1.08812654 4.00461563 0.125 5 C-0.40867188 5.556875 -0.94234375 6.11375 -1.4921875 6.6875 C-3 8 -3 8 -5 8 C-3.62845496 5.04590299 -2.01136276 2.55991624 0 0 Z " fill="#F9824F" transform="translate(224,348)"/>
<path d="M0 0 C0.33 0.99 0.66 1.98 1 3 C-1.25 5.5625 -1.25 5.5625 -4 8 C-5.32 7.67 -6.64 7.34 -8 7 C-5.36 4.69 -2.72 2.38 0 0 Z " fill="#F77C4B" transform="translate(278,265)"/>
<path d="M0 0 C0.33 0 0.66 0 1 0 C1 3.3 1 6.6 1 10 C0.01 10.495 0.01 10.495 -1 11 C-2.0257259 6.58937864 -2.03684712 4.07369424 0 0 Z " fill="#F68558" transform="translate(69,312)"/>
<path d="M0 0 C0 4.35251187 -2.06165511 5.92809398 -5 9 C-7.171875 9.6796875 -7.171875 9.6796875 -9 10 C-8.06409496 8.8944811 -7.12620142 7.79064547 -6.1875 6.6875 C-5.66542969 6.07261719 -5.14335937 5.45773438 -4.60546875 4.82421875 C-3.12827531 3.14575321 -1.59960869 1.56117966 0 0 Z " fill="#FCB877" transform="translate(240,114)"/>
<path d="M0 0 C1.32 0.66 2.64 1.32 4 2 C3.2884375 2.495 3.2884375 2.495 2.5625 3 C0.14208385 6.09813267 0.31801083 9.12026792 0 13 C-0.33 13 -0.66 13 -1 13 C-1.0272415 11.58344207 -1.04650467 10.16672955 -1.0625 8.75 C-1.07410156 7.96109375 -1.08570313 7.1721875 -1.09765625 6.359375 C-1.00385306 4.09308998 -0.63241063 2.1711105 0 0 Z " fill="#F85920" transform="translate(134,108)"/>
<path d="M0 0 C1.1875 1.6875 1.1875 1.6875 2 4 C0.64520503 6.84506944 -0.77431099 8.77431099 -3 11 C-2.53199289 6.94393835 -2.12046792 3.53411321 0 0 Z " fill="#FEE0D3" transform="translate(67,246)"/>
<path d="M0 0 C2.31 1.98 4.62 3.96 7 6 C6.01 6.66 5.02 7.32 4 8 C0 3.375 0 3.375 0 0 Z " fill="#F88350" transform="translate(104,223)"/>
<path d="M0 0 C0.99 0 1.98 0 3 0 C1.70700306 2.88437779 0.34058637 4.87219421 -2 7 C-2.66 6.67 -3.32 6.34 -4 6 C-2.1875 3 -2.1875 3 0 0 Z " fill="#F75D24" transform="translate(141,210)"/>
<path d="M0 0 C0.99 0.66 1.98 1.32 3 2 C1.68 4.31 0.36 6.62 -1 9 C-1.66 9 -2.32 9 -3 9 C-2.01 6.03 -1.02 3.06 0 0 Z " fill="#FEB39E" transform="translate(90,63)"/>
<path d="M0 0 C0.66 0 1.32 0 2 0 C2 0.66 2 1.32 2 2 C2.66 2.33 3.32 2.66 4 3 C2.84826645 5.46800047 1.95216435 7.04783565 0 9 C0 6.03 0 3.06 0 0 Z " fill="#F85D20" transform="translate(163,344)"/>
<path d="M0 0 C0.66 0 1.32 0 2 0 C2.33 1.98 2.66 3.96 3 6 C2.01 6.66 1.02 7.32 0 8 C0 5.36 0 2.72 0 0 Z " fill="#F78151" transform="translate(84,359)"/>
</svg>
